<mxfile host="app.diagrams.net" modified="2024-05-24T05:57:22.001Z" agent="Mozilla/5.0 (Windows NT 10.0; Win64; x64) AppleWebKit/537.36 (KHTML, like Gecko) Chrome/124.0.0.0 Safari/537.36" etag="uacBHCJ44R1dIFFuKsEx" version="24.4.6" type="google">
  <diagram name="Page-1" id="v6UINa-NXD4XHENjGV1_">
    <mxGraphModel grid="1" page="0" gridSize="10" guides="0" tooltips="1" connect="1" arrows="1" fold="1" pageScale="1" pageWidth="827" pageHeight="1169" math="0" shadow="0">
      <root>
        <mxCell id="0" />
        <mxCell id="1" parent="0" />
        <mxCell id="28w5UuvEdXQOqam_Vua1-1" value="" style="rounded=0;whiteSpace=wrap;html=1;" vertex="1" parent="1">
          <mxGeometry x="200" y="120" width="720" height="360" as="geometry" />
        </mxCell>
        <mxCell id="28w5UuvEdXQOqam_Vua1-2" value="" style="ellipse;whiteSpace=wrap;html=1;aspect=fixed;fillColor=default;" vertex="1" parent="1">
          <mxGeometry x="220" y="285" width="30" height="30" as="geometry" />
        </mxCell>
        <mxCell id="28w5UuvEdXQOqam_Vua1-3" value="Старт" style="text;html=1;align=center;verticalAlign=middle;whiteSpace=wrap;rounded=0;" vertex="1" parent="1">
          <mxGeometry x="205" y="250" width="60" height="30" as="geometry" />
        </mxCell>
        <mxCell id="28w5UuvEdXQOqam_Vua1-4" value="" style="verticalLabelPosition=bottom;verticalAlign=top;html=1;shape=mxgraph.basic.star" vertex="1" parent="1">
          <mxGeometry x="875" y="286.5" width="30" height="27" as="geometry" />
        </mxCell>
        <mxCell id="28w5UuvEdXQOqam_Vua1-5" value="Цель" style="text;html=1;align=center;verticalAlign=middle;whiteSpace=wrap;rounded=0;" vertex="1" parent="1">
          <mxGeometry x="860" y="250" width="60" height="30" as="geometry" />
        </mxCell>
        <mxCell id="28w5UuvEdXQOqam_Vua1-7" value="" style="shape=umlActor;verticalLabelPosition=bottom;verticalAlign=top;html=1;outlineConnect=0;" vertex="1" parent="1">
          <mxGeometry x="399" y="640" width="21" height="40" as="geometry" />
        </mxCell>
        <mxCell id="28w5UuvEdXQOqam_Vua1-12" value="" style="endArrow=classic;html=1;rounded=0;" edge="1" parent="1">
          <mxGeometry width="50" height="50" relative="1" as="geometry">
            <mxPoint x="-60" y="520" as="sourcePoint" />
            <mxPoint x="-60" y="490" as="targetPoint" />
          </mxGeometry>
        </mxCell>
        <mxCell id="28w5UuvEdXQOqam_Vua1-13" value="&lt;i&gt;v&lt;/i&gt;" style="text;html=1;align=center;verticalAlign=middle;whiteSpace=wrap;rounded=0;" vertex="1" parent="1">
          <mxGeometry x="470" y="590" width="66" height="40" as="geometry" />
        </mxCell>
        <mxCell id="28w5UuvEdXQOqam_Vua1-14" value="" style="shape=umlActor;verticalLabelPosition=bottom;verticalAlign=top;html=1;outlineConnect=0;" vertex="1" parent="1">
          <mxGeometry x="555" y="430" width="21" height="40" as="geometry" />
        </mxCell>
        <mxCell id="28w5UuvEdXQOqam_Vua1-15" value="" style="endArrow=classic;html=1;rounded=0;" edge="1" parent="1">
          <mxGeometry width="50" height="50" relative="1" as="geometry">
            <mxPoint x="566" y="420" as="sourcePoint" />
            <mxPoint x="566" y="390" as="targetPoint" />
          </mxGeometry>
        </mxCell>
        <mxCell id="28w5UuvEdXQOqam_Vua1-16" value="&lt;i&gt;v&lt;/i&gt;" style="text;html=1;align=center;verticalAlign=middle;whiteSpace=wrap;rounded=0;" vertex="1" parent="1">
          <mxGeometry x="540" y="390" width="66" height="40" as="geometry" />
        </mxCell>
        <mxCell id="28w5UuvEdXQOqam_Vua1-17" value="" style="shape=umlActor;verticalLabelPosition=bottom;verticalAlign=top;html=1;outlineConnect=0;" vertex="1" parent="1">
          <mxGeometry x="555" y="640" width="21" height="40" as="geometry" />
        </mxCell>
        <mxCell id="28w5UuvEdXQOqam_Vua1-18" value="" style="endArrow=classic;html=1;rounded=0;" edge="1" parent="1">
          <mxGeometry width="50" height="50" relative="1" as="geometry">
            <mxPoint x="565.08" y="690" as="sourcePoint" />
            <mxPoint x="565.08" y="720" as="targetPoint" />
          </mxGeometry>
        </mxCell>
        <mxCell id="28w5UuvEdXQOqam_Vua1-19" value="&lt;i&gt;v&lt;/i&gt;" style="text;html=1;align=center;verticalAlign=middle;whiteSpace=wrap;rounded=0;" vertex="1" parent="1">
          <mxGeometry x="540" y="680" width="66" height="40" as="geometry" />
        </mxCell>
        <mxCell id="28w5UuvEdXQOqam_Vua1-20" value="" style="shape=umlActor;verticalLabelPosition=bottom;verticalAlign=top;html=1;outlineConnect=0;" vertex="1" parent="1">
          <mxGeometry x="414" y="140" width="21" height="40" as="geometry" />
        </mxCell>
        <mxCell id="28w5UuvEdXQOqam_Vua1-21" value="" style="endArrow=classic;html=1;rounded=0;" edge="1" parent="1">
          <mxGeometry width="50" height="50" relative="1" as="geometry">
            <mxPoint x="424.08000000000004" y="190" as="sourcePoint" />
            <mxPoint x="424.08000000000004" y="220" as="targetPoint" />
          </mxGeometry>
        </mxCell>
        <mxCell id="28w5UuvEdXQOqam_Vua1-22" value="&lt;i&gt;v&lt;/i&gt;" style="text;html=1;align=center;verticalAlign=middle;whiteSpace=wrap;rounded=0;" vertex="1" parent="1">
          <mxGeometry x="399" y="180" width="66" height="40" as="geometry" />
        </mxCell>
        <mxCell id="28w5UuvEdXQOqam_Vua1-23" value="" style="shape=umlActor;verticalLabelPosition=bottom;verticalAlign=top;html=1;outlineConnect=0;" vertex="1" parent="1">
          <mxGeometry x="705" y="140" width="21" height="40" as="geometry" />
        </mxCell>
        <mxCell id="28w5UuvEdXQOqam_Vua1-24" value="" style="endArrow=classic;html=1;rounded=0;" edge="1" parent="1">
          <mxGeometry width="50" height="50" relative="1" as="geometry">
            <mxPoint x="715.08" y="190" as="sourcePoint" />
            <mxPoint x="715.08" y="220" as="targetPoint" />
          </mxGeometry>
        </mxCell>
        <mxCell id="28w5UuvEdXQOqam_Vua1-25" value="&lt;i&gt;v&lt;/i&gt;" style="text;html=1;align=center;verticalAlign=middle;whiteSpace=wrap;rounded=0;" vertex="1" parent="1">
          <mxGeometry x="690" y="180" width="66" height="40" as="geometry" />
        </mxCell>
        <mxCell id="28w5UuvEdXQOqam_Vua1-28" value="" style="endArrow=classic;startArrow=classic;html=1;rounded=0;dashed=1;dashPattern=12 12;opacity=50;" edge="1" parent="1">
          <mxGeometry width="50" height="50" relative="1" as="geometry">
            <mxPoint x="235" y="360" as="sourcePoint" />
            <mxPoint x="885" y="360" as="targetPoint" />
          </mxGeometry>
        </mxCell>
        <mxCell id="28w5UuvEdXQOqam_Vua1-29" value="8 м" style="text;html=1;align=center;verticalAlign=middle;whiteSpace=wrap;rounded=0;opacity=50;" vertex="1" parent="1">
          <mxGeometry x="530" y="330" width="60" height="30" as="geometry" />
        </mxCell>
        <mxCell id="Rb0Z4TxSwjB6O6hXRURV-1" value="" style="shape=image;verticalLabelPosition=bottom;labelBackgroundColor=default;verticalAlign=top;aspect=fixed;imageAspect=0;image=data:image/png,iVBORw0KGgoAAAANSUhEUgAAAiMAAAJACAMAAABolJZ3AAAAAXNSR0IArs4c6QAAAARnQU1BAACxjwv8YQUAAAMAUExURf///2NjY/f394yMjO/v78XFxYSEhGtra87OzpSUlL29vQAAAObm5qWlnJycnK21tXN7e9bWzt7W1nNza62tpQgIEBkQECEhIUpSUlpSUggIADEpMUpKSkI6QikpKTo6OlreEBneEFqcEBmcEFreYxneY1qcYxmcY8XmrYy9tcVaQhljQsUZQsVaEMUZEFrehBkIOhnehFqchBmchIy95ozvtVoZSlpjEFoQGRlKEFJr3sWt3lIp3lJrnFIpnBlr3hkp3hlrnBkpnO9ahO9aGe8ZhO8ZGe+chO+cGVJK3sWM3lII3lJKnFIInBlK3hkI3hlKnBkInIzv5oyUvVpjMVoxGVLvtVKttRnvtRmtte/ehO/eGVLOtVKMtRnOtRmMtcVre+9atSlra+9aSsXvGcWtGRlrEO8Zte8ZSu+cte+cSpTvGZStGZRre8XOGcWMGZTOGZSMGb3m74yU78Vr5u/etcXvWlLv5lJCa8VCjFKt5sWtWsUp5u/eShnv5hmt5oxr5oxCjIwp5pRrQpQpQhlCa8VrtZTvWsUQjJStWsUptYxrtYwQjIwptZRrEJQpEO8Z5lIQaxkQa8VK5sXOWlLO5sVCa1KM5sWMWsUI5hnO5hmM5oxK5oxCa4wI5pRKQpQIQsVKtZTOWsUQa5SMWsUItYxKtYwQa4wItZRKEJQIEGveOineOmucOimcOkreOgjeOkqcOgicOsXmhO+t5u9K5sWUpZTmhMW1hO975pS1hBlCQhApQrWEhL2UhO//Ou//vVo6Sr3mzhApCLXF5oSUnMWcve/W92NrUiEIAEprUjEpEM61pdbF5vfW3nNrjCkIEDEpSt7m7wgpIbXFra2UpdbFrYyUhPfv3mNza+bv3t7v1q21pXNja9bvzubW3mtza+bv96WMnAAQAJyMnHNre//v94SEjM69vdbFzoyEe2tjc4SUlO///2Njc7XFxYSMe629vffv9+bm1oyEjObv72tjY4yMlJSclO/37wAACPf3/4SEe2trY87FzgAAALhiwqkAAAEAdFJOU////////////////////////////////////////////////////////////////////////////////////////////////////////////////////////////////////////////////////////////////////////////////////////////////////////////////////////////////////////////////////////////////////////////////////////////////////////////////////////////////////////////////////wBT9wclAAAACXBIWXMAABcRAAAXEQHKJvM/AAB+7ElEQVR4Xu19b2+bvvc2FC9CoFDiUSiDT/I299ruZ/tV3aZKU7V0U9W101Sti7pKadRHbfZgus85NqkNpA2EFvJdr/yBEEJsc3x8fOxz2XjBC17wghe84AUveMELNgK21S348LrqWdbzP/Gfl/7/8m+e7tkmbCkeBMu0PKuR59oPP4XLeHferbfvHV/c7cOhW+8YX/jhyY8g8N2Cv198n51jxlaWstzPlJMaPtLQo8bTiy0pHgjmB3KvfTim3OkgArXQ/vfh9eQOoUMycmkyudc9fPXlzr8BT83u5EWPrIS+VrH+5+FdyR1C76vcaR9Oh/VI35/IvX8Cnj+Ve4Bu2SMdlpF/S49caHrksC932keXZeQfs0f2e4ra3HrRIyvhH9Mjd1dKW2P0uqpHGDPgIY78kNv20D9UUiCTRphMJ/NJd2V7Gbjj3Ceae1zuZdD6NV31j/DgOgrDMMbUM38vTDTH3/ND1SO/vRiSFiWEPdjzgw0TEuYngT/M7jyLTVVrICzNHdTz5E770PXIt8R1XQcTb5m9P27a7m3oa/aIs+O68Sloka1Z6LrJj3N5fFPguYlhu+FMfNofFiqgp3bjutuvOY9dN8LE2/H4Q9S6jBzKHYIdue5Jbm+DwBP3wOCR+50+2UlRTWyKf8R03SOUkcDaMvqmIw62hf7VltxDnA5dVzSMA5CReE67mwNQfrHBRm6C5c3iWM2awKb4Rz4KPXL+/T6FjC/OQKNxAhmZwA2irGobOCo/IdiHU7EDyC4BvxbvcA3xC1W78ryR3O+pTTZfyIh9JPYwGQBofmgLYIvE4gZecoOQl5dvi2wI21f56+wsmR28JiUDP8DZ+J/yZPln8g0eIjfFjCAuQa5RmZButpKBOKpCt0c66x+ZgB4JQUaYmeWB+8M4TYVC4X5s+mYcp7EH+2mcmg4cSmPQN8HBu3TXY97uu93YwysG8HUsmtwfcGoEl2B+fGLi6fDeZ16c7samGcsRcXb1Gf4nUGQG7RG1so1RRiixv1GPwJ5jxrux7Q3DxBO/C5LUTCw85xL+c/e7bZu76Tsf/8HGdIPgTzCl6d24T9lgQWz+OoA0myexLAjWe7ebxhY3bszYB+MdMxLCNZkFP/h4TTmIsQYxC77xmcHhizT2bS9+ewzn/9iP4yg8yXdaUPnFxjghBVjW0uTskW75R+QOYQoyEkH2PEtahDx191H6RZ5s32YMTtmF4kSjAGxKx3X/YNHD0ZQbfCRqOLP++MZgmGBJ8XRvxlK4LDeDc7ie60/4oQVi6LqjwQy+QAEcx3CxcepqmsPTKha05ZkekXvT4I8bmr6VuD8pfZabnp7DG/zr1AG79gwuAW3nK/gqCNMx2w1vQEX2IIs/QNtTNqwTxnxM+nmQVRa+67pDTLiHF7Jc/7zvupZxDnlwfVAqYNZjf4vj1TzIjDE+gIo1M+z0Cxy2hzGben9cM29SQ9HuGvznT8gtS2M1mxl0PdLZtob0yLVlpViuCN+NfhvGMXR28BM7/oGHUDYMA4oM7owdClMdjmLG4ff4pRNii2W62L87wfsJX1tjtMLgBkBRcCgAODSCWigsY4v+IXBdVcMGUEvvQW0NlS3KCOqRTE6hqce/A7GAmwcXRHsWNqgQ4YooqKefMa0B7cMhTOkJyVlAYuCmc2OyjXKBgA5UiNkN4CdOCFeBa+EPIcFwfRCVP5hIH5PwI3IhJx9AbHwjoJtqutBhgXPCrAQXGKdR3wp7IDteuVPBU82v7vpZ5ygjo59upitBAuA+Ym0kPThGPS5lBKtVQNUx+gsf4SgU+RTsGRABOIqmmY9FC5eAkv0busF8LH6F1QW+xVsDMjKk98jdk7dPSY4+oUKxRzKNAlKBWm8C2gvuJ6QdyhVUGR6DszMZgSteuHuQSPiAgvgHlL5h/KJrQJIoIZC7hRGBeQIxm0IrOIWMjPEAthDfhXiP3B34G0gDlAK0f5gQKJ/QukXNwaAO9FHxkpTp+NHve1id7AhljO9f5Tw8F1T1MnTWPyL6NainxWHIfAqmZ3+HKhI0IfAO0kD9N9IjgSkrHRQ0lrzQI9DsJs7ANvEruAR2YW2blC+Wv1Sp8IsRN/bDEErsBrQRXNr5I3reEvp4zb09gjLyFvdgh84nnXCaUKs3FgIDZ6N+u6GUTw7c0Bv83g/xv4MQGpktqUcQQlgVBD/xsjZUCLgmpNFgM8y9qByoR1An7bimPXgF38NPv0FZSCvUNq/Gxg0kdakamMZYUGeJCdYTXnaBfbXv291+DRoJ0LjAu8gjtN0pVDW4zxH2Uvj+N02PbH+wzo7co0v4CHV0aHMbDsKXr6CQLc+zej2O90K51ZkeAcB1hr30Zwo2Av7BEZQXVHFVRvTxGtA18q5iv+Yj7qAewVsD6U2NTyBnIG5oEu3DZqFHRqcG+w80o+d5/iGYDGAsJF7fg4Qsk5Hxf5jIr1ACf4/cZNE9gwRD0kH+Q/jmEH7keXeWLyx0UCQLxeF89OHPl95iC6/4ac/dNq41rWncadnttH8E7hI6ID7jcazrYIKAHsFqDnpE2COv8VQo5L63zeHOYOmwXjT8HPtwEGoDGAhDW5plcHp8b6/reiSxneswBKvDE3oE1Ekk/ZCIEnuEDmC/hvZAWEim4D9SYxCSocBARuAfToUeeU/2CBjDoGJkglCPQO8UcrpMRlBkE3sfEvQXrJrFvYd/gbyhHoG/ucIkbGUGBPoe5TXG5vA9WOao0koh+jTwn87CzJPwekoquqVHZNER8BZiqUNx/LyDz7L4oMxIZE4voArAd1KPhKbFQEbkbWUcvoTfw5dwExdFi92Ie5Wq6BEoZbw23Cuw90CBoB7Rzn3QHkF9jXpk+Am2dL/hezQUsN+B6kTokTO422BQ3P8rCLywR3QZEZ6WDPAHYQwXoX9a/FCzR6BIFMFi0OT+pJsKv+iTrtnGw8pNl2Ax/Ss0wzPjVjfRN8Q/giWHRYv3Ay0QqKjYHkOBmHPn5PfY+kD3NrNHwISH2ntf0+j3oq65B/iRc9QNorEBGwCLaFHocGv+A6mCa7+jQoVGA+wRtUYH2jw0skdoD++c0CNgj8DPwLIUNqu0RzAHaI/A5sb9ifkAuSaDag4SBZYEqng4tFSP4JfUW8OM0A/RyBaVAw/B7fu7R/8JacCfegFkHC8C+Tuifg0mxY4TaolUyD4NXMsx7uQlJHT/yFWXZES9DzRegy08lBsWyMTEagg5Cm0QG8u2oL6JosrqJsiIakLA77Hyw893LubGwBN1eA8KzKE8y18h0NaBEhT12Xd34G+hYlFllPD08RqwQoRfgWQEd0CPhGcgiSAqcCNBGqHI7b1F3xfuMtoj8CfSCmd30CPFfg1cBv5XDJ1gYuOcNwM6Y0KAQIJdcwwKFK4v9AjIIOoRzAje7i9oNny5wF/Qv4fuGygmELGACvPne7rMAqJPg5nfucQ3peh0PbLVVT3CBjjui7IPBj1kEzqliXvMQL1a1Ffx+8bWByicFMwSvFGvz42bP+IHAtipwB4Hqgs3SXdRw9h4zTB6S9URWwLxj9SszbgV/sSihk8nDN9UiVXHaxgL3qCOw+GAPlwwwvoLJuVOGtggtVS8PVB6zHL/g3+aQIfGtfgpmJZ7eB8s+Bim/0H7iS6zo9/090J7bIG0DH/jnoI4q+FwNiQ+CabGKWQcFNAA1JkPIoX5d0fpNVjEThKQzITOHDfuCA3iYTDHQiAVusBiRgCIcABiqtmsnupW7qp/hAdmMkpGsQdV2kuSJIWbz8308CM6sY1+MoJy+2aN4Is+FDVsY5v7cN7Ccc/gyxGdDJZbFKWilthxFEUn0COCw/jrGCWHeSn+Q5qYNyQWYz+xTPwDBao9wr238NORH3DuxfBL2BuTPXLzaxhlrm1vZPY+v0afh23iOSP8j5CScZxERyNMWQDHRn2Gm7SP6oP2jtWbBeiP8CoAZkVROIIUswtMr8Ms2HzEHPxNIVtgVWNOegMH/8qEpjUdwvvZ5wQM0FmaDDUZmVqi4QLcJOZ2Ess/EbjT+zUd1SOlmINRUQPz+6FAMGdV9bAE00H+f/qHuilZANoj0Porv+MDpS4KnH0WNfIUbKmVMbDur6NkRMcK2fKP5Q6BefemG/csaCZVaHOe54oeObcDywd8nTE7OJR78rvngGM+ch9aRF9toMuA/pHHBTi4vzGrgDlwPjlE1wePsdu1Io4180v1s3Ibm63I4WxAe4kzWKHSNYbH9Uh7CPyV9MhjGFfTg7MwsucXjZQK8/sFtbYc2nhNzj8ChrY0bcAKd9Et8YxwCgOU3YHuHykBjr41U+EVQFfG89D5uzZsq5IG03zxOT8rdsxENwx7nI/p14bRbT3ysEZlHtiTd02nn8dhdNWMGql2lYfmxd+AZND0TBSW55eRCtrwmaH7R4rgA87hpTqKm8DUzvppzwu9X6P7RzI9wkzsXKOMOF7giYFjtg27qE4ns8Dz9uGwlzXAtnfreX04eus50F5M3/s+DssimOf/8uFXNvyETjm+2MbL2T3f9HX912U9os9n/Z/HQ37WbalHLN8DacHOkv32pxw4DHZcF/rbhr0bhteBFbl/fNmnnppp39t1/6Re8PbjxGCvh8dBMqIaYKdJYLrRe8NK0En8B96vYw7qK/a82A01J4TuZ+0WHrVH/rfwkJ8V9cgvsKdj7oD1SieewSHyD6ObD+4pjlLGWwYT49IC1l8aoX6Lfi0GJ5po8+JIPktxmkvkjjh2x8EES8+NrX0O1k4C+nmodwU2ul/zv4WH5qEJe2RiBgY6mW/xkGOGNCT16XUiJlcdLQYzs6aCoTMaRAgnUtjMDvG0WYiDzbc4PgaCsscHIDE4GgFn2mwKLVmAQ+fqGFynZUSfz/o/D8382rI0GRH2SB86oQHsUbkEwVvqD58FdGOzSRFyfss9QEZofBUkYac/OYcrwY9SGjB34gsy5i6ycQnDipIZDTeoWuzypMt6hI/BKhU4hdcY3pTXGB+4we/kC39AXytbBH4troGv/Inwugd8Es8F6Jz8b8q2+Rf+IzxXg6XpEV1GyD/CMdCgjwNkdOgm+OkmnHk4BoYnBxHOHz8FGdF67q/BWiF7InZ3TjzPShMLlc1QMcxBj2Qj3zab9A8jfWzV0ebxdAtBfP36xMfHNT3M77nX65PvJ79M3/wFZ8iX6cMRffs2FRc4+QWvshPotXj8got+14+V/KZkiwm5fn3/guPwj5io1R4jbWzH181G0B6mvw97aKFKPTIGBeI5M1AgOHsS7i8Ym+b3IzF3ZQHQIzRcjjMoerYNfcExagqcoJ/hGGSExtMAzq5/hteVHxFdbmu+nji2ffn3r/3KfoWwbdi7f13CC98ubToD3vA8esKxS3rHHx3HjjiEpypfLE68tGf0Nw688NsZnfmKPv2l9+JvCp/hj+gjpY22dBT38Nq5V8m77avmV4l/JKTYRNQjQka2sf4n/gRaF1dIBVitfgD2iKZHQEZongOOdGeNN7YmKHAStws9wvw3MZq9uh7pct83y9J6cLT62V3k4n0LemSPav5Cj2wHND/hmAwRuqXQTzkaTErsETFZVE7YAUGgmQxZ6wLAfg2NeG5ZaAbjt5uiRzTHY3186XBzquIhXkW0R67FnujpgpYF3WHiLDmc60Mng1oxyWZVOyULPUK/ROmyQc1kHn2b+rhoj5AOw5lZN8YZiJ6qijqtRx7xs66I4NdmuOL0+ay6HsH7+4v2cGYcCRPGfDnhiejQ4Mmi+sNt1udbox6hHQzCRCcbRqhivGRoWic98roubFacoxqZPho/ipx1WUaCZvTI+43RI4o7U7VHzm0PVIUb3TnMEXuew2ZJahtjuJX8BI6MbGMG9kbCxh/h0+79SPcE7BM37FMJfDiA79xdUh0DEBIQHjrRwX0Kk56CtEQWh3c1lLDL/KyeMtFnDZw9MjTYFejjNaoeGf+e2Q48+GQ8wC3sGfwvBoaNJ8b579lfG/bHziW8M7C4Z5fK/Db+99Wr2ScxpjVxPJAu2jVA3DxiI4JTHLwkHZ/MHLjquYPvC3RbjzQiI87r7mZRxRPyoa1Xjp22WQvjNSKtFXOsh3I9IYibpD5y9khn4/TagE1qjmnqjfBV1yMssCwvAC0Lp9s3Qb//9cuNEwRecOYwZjuBQx9ADedQ2x758X/v8R/6/cDOlDefnb3/4tiZMGz9/eI4ZzbHdL6C1Hn67Npq2BA+tDbAYuqrWRSYoyEX7xsPLcczzRO45Sx2o/gt2PPuURx/xugfHLxw/8TxKBr1FHMLcVZXRgbBLlw0fAsXTbEzAGm1LQyZwHgxggMfwIIEmWFXkekEfmyeYPRzLWxKnF4bICYPlqiOPwHNHmG7Ylpi8CZiGHsPNfsMbhCI0byH0aSncPN2weja3oObpin92jIC6gp6gWAlzL3QHcp7ZmHHQt7NLepl0Id9seGJ5lmohA7zjzQ9jasyfhynppmmon+mQhsI7bsjseOhRFG1RqcBqhpmgub4BDKS4vfbO7qX0Niu36+ZwUWp4+eB8hA3zfPgGBHfgQj56ErAP+NDGd7NJS9YDeTskRc9ooOXzl3X5qH5mftwbEEPj+4XTs4S7iSQEeQ6EI6gGO6n2ty8r9+vQWc3ycg8deVIqYdhgXLoHMwfKSNwouyV9GvXf0/Vdx23R5gdUC+a4biUzeXG4PSBzsBdWxwHe5PP8B0+OtDPFofgxxw+4gfsstNWvQ6cIzdgsfLBYGzgxNS8uan1a0wMK8GdLTQgKR2oR2iM4xxk6V5GPJy7hzsSZ/WnKuEwCU01XjivjWOi8KGR1NOejV5PlBGQFSTWA/CcNbQ69HUnustjBPjhJ9cpEs+x4ySKEoxejI5i9OdFYUSVZRyHR6Ovpx5+DZXaNoeg+s+D1PQtDNtE/24QR4nvp1H0OTC+7SdRmNrcgu/imeHgOT6bwZeJxZiXHMFJsImO0kBv97R5aCgQITYq98BDC58CX8gIVv5FzCTgZg17JNMjJC10eei6gKLCsHBj1jP6cBjtKHRiu+l69OQd5ovP5Qu6DH201zHuBgoD0o1DxahbOZQHNcSoYLHkQOlSmJycE4ssmsEfOiXYoQHqj7IWilFpLEfMeB9+BudAzaRxBFAQr+FP5KCDCm0eGo4w5KQks0cIg6NMRlBaKBBc4rEQjAfgSCZYkBbYo+6MN6PpgpCviUVMXm8o2dgAoZTgfk0c6/ZIh/0jHrLXQTFHgrII0j3bc11M8NiEwocCYf3Pov7iTUfhEYyCWMOQ32EElR9+mIL+F7eftlDZcJ4DGv2zEKs5TmegsPkruhjW2LyM6M6vGfYh4O5bizu+sEcQ93oE/4fquUQT9ggRHrjYsYKagPIc2QaH5HmZgYwzjgE7b5XpXRXRYR4jvZKxlCiLrD2soJBvC24mlAPpkf3X1BDbXsZxBqIQnxvMEkGtOMMaqjbeKPhiV8gInjeBLRRkNqcO1PYIShckj1p1OBdOglN28pZ8zs/K4590HxaSs7BHENSvoW9wYQR1KtYafd9L0JgiPA4TT0az91cYJxeGBxUns0dwOAzOdd2fIjShDm41PWLla0x7yOsRMP2oLSfJIT2yffWflBHPIQ6r4BKOU8n9PUKOGOdOmA0XoEe2QUfABfFEEAe48VQLYXsHJh5UP6Rsme24yemHHhy81yMBMqnlSyW/Dtb0fQrien+eZo+QzUpxqaje1CkU69ojZCTh5YlRBmsC6qyR3QNpQHskSw6/BrGXmaqDDvtZdaMfKjmRHBOQuYdbM7h9KCODfXYAN4V7DPQJ3ZsJGBwmlRriGIoQ7BGqzHa8E/lI1YLnIesrFCTeO6RTgL9ImHd2e69HrB8WMjLmW2DVzypc3NM+yKv4GaAoI1TIuKfSCaxpjwg9gp4SDEwx9pGc9xqkMEZbNdMjosNnv31DrVA9PDR/pFXk9QjWnAUvBt4+y2FwX6gcLON96EZgqUERiZIDtRF52YJOGE8I5qzwLyH3sgWKI9MjkH/FHhkFtwxtVjwV2xovyM+PQ6j2COuLf8F2P+u0aG3NvT2y6JtKrGuPkJMG/+s17t2hCEAWhFncB8WGsrIta30QFZvMVeFdKdW1y/0aonKS+3hvU2tyCiYqJniwv4XWGhR/pkeQ+NRNKDOQPWypUY9QTkks4A3Py9sjO+4RdE9QRvBOQluTWFOUkYI9ovhZF2UGvSwhCuK+3euRRb+mpzc16/pHhM0KWRAK4gL1CBrcdDzr1yz6rQtXX3VYmvnVYT1CE9owl+j5hCoOBZN1S7k1x1n2sAvnCD2ChLh7aLEGUW+CfV/o15AeAXkILxfnCRlZ2CPIK0eGX6ZHosvCPFuE5md9i9x3CFN6tUS/ZlGupEfwfBTF7AxCE/4RtIhFU0B6BMRTTAjE6FtMdiD8e/jFfVNdER32jyhaGYFVJ7n528f4crBHIN3ZVHoOhfFpDxU9Ng/ibLghOBUX7vDI9r9R1U7xgqCDd6coG3Se8I+MoZyxrXHeUGuR+UfgYnBLS/WIUrHmHyXXHherWSA0PUJ2JG533VDvD61hj+CYHsqIPXL3LsQhH1eXgHZT6KyFnzUzQ8zaTU2uG9fp+SMBKG0QE9uYQu/EHdpEaPiWG2ML64oJIoHHaUURgC+GukC/x8EEo4CgzBjDa1gkbnAeA+UCxokFEoP9Vo5ba0qdyeDcuITGDcoXQwLSHDFUoPKhmcOR6dn2TYwEdghO0zCHAdE+sVeH8ME1LX93SJx8CmrbI9wB+XXDE8tPhyYunAAt2kWY4FoVwsDkM5w8gAeCKE0tB36QUCxuLWzS/JG/fmx6OCYS9CzfAhk5PL7aH4Aa6Tlz4/cpzvWBLxyRIVtwA47vfHSkO1avZ/UZu/Atixl0HjQjwaHl+999/8qPQ88YWJblB8y24NsbY3IGm6vZJIBfYMdIhRpwwhw+hXM8X4yKAOygh/BosQLuHF/Bn8G/0B3UUNs/wm8scdGrgDIJqZhBiZCNzuAIctlB6nv9T1PbMRz4pucXliRZHbn5I/mWtz2UyEgl2J5iMzwKZqlt7mMI1AXmCBWZgQTWsEcqolbyFvB6itrcuuq0HlkVDHVFRQLC0yqtbEO8AWvYI88KTY9MOz3uuzLAZHR4gRD9ERRaggfwtRkFsIZ/5Fmh2SO5OL1WsUZ8DciI6edMiEahz2etjTX8I88KTY9s/Y/YI16a1u7orQJ9Xc7aeD57ZD38L9ojYJHI7RPhX7ZHOrvuRMfQUPDURtoj3V2Xs1soxunVwhrzR54Vun/kZV78SmiIN8ApuFm6CW3cd+57bMzHP8ac8fVep0gbV/MNHt/GLDBLL/ThFA9/w1O0ncVLPIpHSh4/TuEJF8Qd9bj2gK/gffHEB7v1oYjEF4t39U174L+M4W/uD8EufvrmfeeQ+PufVXqDnFH6V33ir6o/sXyYrkes1ER8pPeDNV7rIjZjkZQ8FheP5fZ+5zFgrvKvYmoX37zOzihiSdoeQlmh1LhMVYjCWbmISgC//U+TEd+i4BKB32u81sXg036MDHE5/P60uLgIgwEsdgQG9NSBB34PPsE7npy98LPN5c9/D+QvP8kXfkFn4NHsIWGZcicDpOr+iadlb9lPftPfwKfFNQD7+cs0D5E7mce68HUZ6Y7Natf3oT05Aq3QamNzOPNoOq5Al/ysXzZ43YkVsSn+ET27fnfmj1x2uF/T14Iba+PZOGrWhMYboK6n1zY6wBuwFA2N17zfED2ir4P14kNbCcX5I7VwtjF+VrmD6Na4b3crWUN+1i5T4qu40/2s/zvz0J4SDRmbG2OPqNnNz2dlfJaxZi4w4fZNfoHzh1C3GLq8vm9Rj1SZobTAey2SgqCUlja/cL3JhmsiN16j92u4Fy3iATKwWapTwz8E24sFp1t1FPSIhU6/xcTiVpGP9/X8i5PcnPdVUBjTs68XJTuxfGuxwiCHfUGO3QoejtNzQiqN4LMy1seSoZyM/Sj4LJWU4NWRt0eIKdA96ISRovdrmP9uxrUiWhGO3mTZZiTDqeCaJ7H925OsIXbq/x74gh67DVxoVSI/fyQQKsO/jyhCGTlY3btlFWLcVkVOjzDfcrbPgipL8z8ddEPCG2J9t1Qi89UQaP2aOePxQkYsipy6ptA6FmNYFUtaWxRb6/sW5o+YRyS8XI0NCcIKjjYzqrCuvYacPeI04/5uBpo9wocUSGzjSgvVsJ1va6xMRnhE6ndGgX2eqGdW7XjddXGnqU1f1yPsc0lL4WvcgA+DJSIQuwZ0PTL/3qU+gGaPBCLwlo1k0OTqKPRrvExGPBEu/C2JuDEVVMLG9s+2RrD0eWi5+azOXq6lYHzKUoqbBRC1hcjl/Z6OL39qV39dRpwwTPzaRMVNQ7NHTFHN5zHFHldBwc8q+XYx+p+uxdKfM+N3JIK5L0NBjvH80HgV8/PieyjB9sXBZ5F71t93PC8Sv7AP+1+/7McD44NnJpbB7pISy8MKKVC5DjQZmVgY6xt2pb3pKwqApVI2/IUxsSoKftZMj7ChXIcuBvmb7SSnuD8Ofz5lPMgD8FS3cs4eYSkykLHfozeUOG7efps4Q6H5vINLxm53RsyYf0PD9CIssU5ZWl/09fiabx8GwShjUWgd6rx4nuyIiEDNsF8JhdiJO5nBwZFLJT4x4UCQMWUd7bSkSHP2iCYjPCLywam40zw+AdU4HZHmCyhIvi+KBYxwZ+boFKUEHtV3qBf8I7gW0k5bZpsOdULFeCRtyeoystQe4ZGQEWjHfJQROu1DJFm9nx3elWqP6DLihUQu9YqcJExwsfAEzXd7SJk5fIOpZmnslKfeE8u71kJRRvA2dGPikdqvWUOPvM+HcmX9mk9SRqaoRzwpI6ehFJxnx0M8RifCWPLISRLsUZ8nCPGUE+F+/UgnDCJzQVSmw6xs6t+jTEa+JW2ZbTrU8Zpx+kY0AeY9BdqKWGqPnGZ6BB0mmR7hsgF6fnhXij2i+1l58pa2cYScH58T7MWyXfSY2MJ65EOq1l54XX7n+JDWW6iH0vGag27IiKpH5qlc9CMu0C8+hpt8v2ZhsyaiWQF72DHsPyLTf98UxkWeCbfL56HNwmPc8CE6SWYh2SbBDlKFSXeOJZoSc1k7OROe/Hoo0yPGd1Gl2oY2f+RK3FiWimVsKqAQp7fwj/iiA3CagCJm+Aa4CVVOxueENg9Nnz9i7RGNUhBiIyOc6tzfgVycx9TG2BHxlPNoF97LYFUuNQVOmevZ1NrC1qD5WWdvSJv+Diu7Cwu8AQs/ayBqlx1i9fTFCvz1hzXWhcYXr8X7nsf/sW/Qyvg7NuMihR+2ryKHMWOErQ/fH6YMPtwsc1tAz3cN5ajrEXEh56QlbZvDV62RiCmbN2SoVUJhjtFCjxiiKyksQTukRZYP2mpqDE+1rTU/Kwgxzh5ho2TQ52g5DWZ3AzNygg/z2D0eB30n9O2AgWG6JO0OLhFWG446Lz5IQDpY8KvKxJUnhD7ua49AOr6l1effFqYqLfSI4SC5LP8s2moLpSMQdLNtQPOzajxG9lHo/QBtMNo5hCaFxW7kczDMcD6IE7qpN7Z3Ig/Xmyu3EezjBH7RUL/Gjtzov4/7bVWkPLT1a6C1iX3PzOuEFZDzj+Ci2xGukYFw4kPvY/b98a5nxa2JCOgRuYPQ/CPMEXPQ7DOaLjIO8ONAHgv+gnQ4tJwzL59N8oHbg2x5qjrQ54/wGy/4tPqUhCdGfh7aD8excyphFejr6W0xKK/BosT4F+e+gtlBcQHZ50Nu/Zq2zKIiSvs1HUFD81k3hn/kUElnt/hZq3YTng8NxeltCv/IneYcfNEjK0Hji6+PjeFDU+2RteJruOXfQ1/suA66LCN5e6QmNiXeVx/3XUePcP87PF7736+++2ZVdtQium2PNOLx3BR75EJVm43ZIw2o4i7H+zakRzaFn/W4MT3SMP6Bfs3m8LMq1bVb/ZruNtb/mD1yq2X3sDsyMuu0HpE76+H9xvRrFFneuuo5dfHl/c0XxwlwB59rwzLhcjdwVedMbtd41XiKHBWezg28Dl9jTt+fOTeQX/GERC575q4gn5DFY8winCB+vv3YE5LUysvR+dCIV/HjW2LTWzwPVnvX8RGvg7yE8E2NHbjof7RpCCfV333aKeAjfCUIEcWZqyF3bYHdp+dVLADuVeVXqspIOY/RKo3m8nMW31Ta6bh/pJm2ZlO4JXK8AS/9mlUQVJ25Wo73flsRvNXwIP9Im+h0v6ap8ZruZlFFjseoO7yKXdYjDa1fsyltzUV31wnvrp+1obbG+dWZGTEP4sXPWgNfmxmv0flHuosOrxPe4bamGT9rIb6mo7jQ/SMvemQV9Ju5uZtij3hqOvN6hDtWgfKO2Z65JOaqCD6rPZO92K9hxlYpycnzI7+eHuOzOtNN37/Oj/v+uL8Ms23lw6XdYs4fnM86lrGm7NN9Cpk92nkv9x/B6XW48zOtOTU+r0dYGu6EOzFRcbSNnALgpllrXnxuriIb7CcUGYkYmN/3Y0tWk2C31+vKvPiCPeIcUct7pYY7s9FotWkPY/PdSRy6Yt3/ysjPZ/WioyiKchW4JejjvjyGe83T6r7XnD1im6F7m+2n0L2GN/qAoTXT4PPK2rtpaPE1xmHOP+KFpDK8aJ8+Eni0GjncxEGBc8LKFFACOT3CfYf9GLcYQKBC52f1h6gqJQVlFej9GpCXeyokEdi2T3HVfEix+XHaVu6PLcUfnOdVZLGgYp2qqfNCESf/GKY/aGM2IyPBhdzpArR+jQjKNfgRRstXwvv8PLSMxwhqFtVDm+gVrZ9E3WH9bKtD4R2qfpwcr+JpUsIJszR2sxy9RmRkHB8UWMnbg8qHZliCmwbspaqNQSF2QuENoCrxY3RkQ9suiCwdomxoA57a1uR5Fb/uwWfGOJdSwT7NOB9JueEzmzEwt8/h+8HUYDOhN/IwV2aF1qHF+255rusO77oiJWq/JuNAnCC/XTUU/CNZvC9755LqmKdvAtBTogTtECPx20CON0DP5kn4CdJ2PNwRomP7d7blH9EvmHcdOJ45HBg/vNg9BMNt0ZZqYGnN8S9dj3gfk9B126PD1qH2axa8iofV+dCW8Y+cDiWliwn6xPkzomz/OHJb4szz1DaxwKsoqFhTwfYcpJDwHxFpPmbiLfRcok0B04pZSXmbYsWrdYIKyPd9DW6Fbv5YS1D7NXwoWVZq8KHljf9MRrikPtsy3R4yNtBd4OE6dC7rQPez6jIyC6khkswADhGwspSo8/wUWxaZJ380C8asX3b/7IOa7pGijMChqDWaFh1qv+b0syR7rC4jS+0RhVeRZIROG7fHq6i2iTk9ciEENyASGi7sVzvCkggiOtHfIZ2SfFT55FXw+tzMmj0iEQi91TrUfg1PBN1TDRlZao9k/KzEmZfxKvI9Ku0W8ICfdXIgGkJBWSU50Dy0TVgsaGVjYtt5FZVQsxI++IKuuA5K9AgyxXbCIsnZI5ntoBXlCvjyPZfFTI98SISMgD3sGY5LmhvaGkGl/Pzweoq9oPtZBxFpDkHWzIfUKvJkCB+2Ba+Ts0c1R3b+iji1ajOBl8uIYRK5Y+tQ56FN7/s1mhJeATr/CCDTI3NpB7MRtGN2KLjAZyGybrcBnZ9V41WUkvCJ/Ko3P0kQPPcjvMulJ0zq77B4yUIUH6x12s9SGTkpWQejBWi8AR706gAsCavquOW8ipIf73Q45CAw2LsE5fWzrVWxH+ANuBbOsrs36I+3XHSvvTpBuZFkeIHosNt71/BeBD9G0ZnUZR8qs0eYuZqL96mhjdfYEXXd7J3VhigULPehzUJS4bMdvDv7QqlYrRGh59adUPysLI3PByAL5tHpwBZq0A56Q5tzY4Skm46XxOwvMzxhv+bBvZkxOWfHSyigH4WmRzhRPTEvGwhtGTpvgE/8qV5U+RYW5o8sZASuiRm+opEglqD2PB+9K1GszwJ9vEb1szo/P59BtsECCQKGC8h4ngftird9bly78Y0VzFzT+TI5JxroPKZ26oZHYRjW9h9rMhL8GXoD2zrshDWS0yMG++h/mAvPQDXk+jWMmQsHEI97jG1LKkVnFDBmpUiG2wou1OxqvIq/0yEmcW5GKEZTK4q8c+Mk2od8DdKj1AHpGUErxOKyIIeJH0XDCF76AFAFaDIyjo+iJHZaao8LyAVzc//EMkuV6cPI+VltK03SzIbjJ9c9M5un48Q932xNRMAeUQpe94/INWWzpWXHuJ3IDzQ2w56yWufsEbYGRWPjKMTX/OB1/DYl6/sqYOo1W829Fl+TH69pE6X9mo6gIT60TeHMe3A9vTbRZRlpiH9kU+bFa/G+Wr+mMpgKeaw+uiwjOZ7nuij4WTsKbZ3w/Dy0SrDjON6Vr7S3du7L/CNdQX5efE1sCo9Rzs+6hh5h2/0g6NNb0F/f3dNlPfK1GUNic3iM5A7ixR5ZDQ3F6W2Kzfrg+r5totMysmQQsyI2JU7vwXnxbUJf37dbaMgecTbEHtHdQSQjKDTyNZ0YU2MyNYiESr7gU+EJh0V24dPitR5Ij8zhzydZECcY1/CEnXafUCxgbJ7DrniIZNVIHOmROezJ60A5w1Fxoa2pfM7hHuAO3IiWntivUbsPV6aF8C3rCh749GnbWwAP9Hp4IHvBsex769DCJ2yv8Emn9no+7FR7XPUsy4zxv+DfYR93xAe46uJohf3qT/hd7oh8whe9twe0JYhUHmKa4f9wX2wWzyw1+fdDyKK8hgReEr7AC2HxYwbEC76Aq7b1tGIlAs8wekJGirg9lk/5UXkhbo/hAds7esLbnXW3f3whTvDwSFV4J6llwQUE6KKIu33a0P96IjWr7IskrP5+d2t5tKcdlAm6Pf4ON5cuj8Bj+8ce5R/PxC2cqv4ydxXx0zvKYh6LLIuz8C3bgayv/xT/Xen9OFab1nJexXbwt8P2SNCUPSJ3Oo6+pbY1HeJ57rafVe6sh03p1yxfl7Nl/AP9mvfNUO89ObRYTsN/8Y+sAp03oDa+bCQf2oufdSU05GfdmHUnNLX54mddCf/auhNXSjpf/KyrQSfkqI1NGa/Z1+2RvIyUTQRpYnbI4+i0HmlmHpqzMf0axW2e1yPcSwt0DswxV175nnlXVnl81uMoyIiNS6m0SS94j/w8NDvwghrcIAV7hKlLg3sYjiDheEFbwTUAnQ8tx6vIbsJdFCE7WwUfwPh/Ryved2bFqVudJkwgLyM8dAEiPLptBHqn1Ul7X67j6pUh5x/hXnwfFRuk1rZpigrK/NTzYqu1rD/CqyjCObWQeJbEq5njDGU/i3qvjDyv4j6utrM6M+yTQvePiNCaj9XzmZsXP9i/584gYobJbkyD8j6GRdpRa/2J3Pq+OV5FGdh7eaAwss5WJsCk2LphNfq0BXJ6xPZbInoqw1d1PiuLhx9gMyMGjkoo2KxZTLjB0s8oHQFVUTukGmpSOGAbeHD9GpYmxUF+STKxIsZRbT0idwhb1p3c6wI0/4jzk1L6Y0hEG1VQmBe/iOUMBCHu4AgLzxTkFcEi0PO5oa+DleOL/xRp1goAkiz5OAGkCB+BR8F+NaDrEZ4kV90hVtTmoUlS1WksWeNWx1I+NONaNDrsv52/xmkSUYie/aYtbokH+EcM4xipWLnjeZKIyw6ga5GIAmJB4HDb42CMBxb8zPZLVCHzakf66zLio8Fawyx8Gqix6eyd5B0xKxNxFfhZMxlhiVAdxNn4955XsaVwzgfX0yMqVh5EkjHF8x3eT0OaOz94fWjb+2hsMAcZmeAk7UoAFvTS+tzEuozMguM4dKuH5j8NVN6A8Ujqjwb50E4z6jPkRtp2RSM2jtyWOPMeskckBZqRIncRFAL6StiQSBZtWs/Tc+mE/eivHVwXbiBzoOdb202U79eAnKRuN6iuNP8IT/bEravBh/Y6Z49kNiv080llTE330Oi7u3Rae3xoD/HFy54vj6izaw2xLMYpkmGw+AC/EcQ1RpwiNXzJ7Tv33MoKOEPePwJgaeXb8DRQnV8sWfAqfqft6ljKP8IzlWGC7ZrxKn5okVdxuZ/V3yOSpT61Lpeiy+tQF88S/bDvpFP40LxZpi18V3Txq6NsXU47rNlJahjqRHEuqbqN75UFuGCP7EsZGRy9oRo3OYADmYwMJGnr80Nfl1OL02OpSNyvI1B8U9k997HnO07oBrL0HQqAcyT9gSWwZWNaHSV6BPoONYnFG4bKG5Dx2xkfK6vMpfaIZrPOfibf8MOnvcqEaw3hAd4A6bsZJ0i0aQuGLjtEIkgvJAar4Cdl6dcDhSNWTqiDoj0CMEedmLmljdeYosFl6Z+qTcFSe8SQHI0fEtBRPBJWmLPTlhLN8Qaod9sTQy02tS59Sj4TPJvX1AjxlFpiNkrKVxNAiB/XQZkeMczXcqddaLwB26KNYfJWVsBSe8Tw/tAOP8Ia+VZQKfdbM8aW8wZM48/f0GfmQxInRg9rC3NM7L2AVMBx5kXUjjhC3ZTDEtyiNeCYRUPGbpHwSYU2XsOSz1iETpgbDH4cy9ev4QkRWgtf/FlI8S2Cmq8N5HgDFBn5NoyRznAaR9yxQcR/nbPg0h/OnIGB1MY8CIYmC5hxu/dK/kIF93FkexDXJnrW9IjtB1vG1if01XUB+qB+QK5kU5BiV8FSewT2yJMglr46/4jahBMJeyvwrtR+zZXS1jh/oj5UWz7cu4X02pEb+840da1LbDejE2s2c1PPhmpUapVCrzc5Dm7r86lq/COB68bWcc4L3B5yfGhW7NhWWt3BlbNHuJO66aWQtKkP1/R3hebgsW87uGhfS7hVs7ulxtewnknZ9kw66NDAfJ9G55n18ZDj+iSQIeaV3jnmmfFbq3LVuoduj3jmbuytcbVmkedDCyyrTlZ1e2TrU9Dze0HWmvYt6za7Jofr93P27TNCi/ft1nzW9grlMRT50GrV8YI9okO95oMnPjX0dSfUtqZllPZrOoKG+NA2Zc6zNu7bpXjfUv9IR9BQnF7BP9JR6PE1uXHfSmA4JzmDvfYN7rYeaeTmbk68r5LOwnzWKrDj9B7rF2KXZaTA81wPj9gjnUFu/khuPmsVTLmK4hzHiuiyjPxzPM9yB7GWHmkYnY7Tq+xSLcWm2CO6HlmL57lZ/AP9ms2xRxRZfon3XQ2N8SrKnY5D5x+58hg7/bDq49uY8cUDDrCx8jgVx2o86LLsxuRw2XH2gi/GP8bfar2y31fZ4i+Xfcc8H1PJ4Vn8WfG9mCQ4G3MZfB98OKVP8i37/v6sLjyY1VOty15qvsVwuJXwUW7v8XHxoKC6ejgQmzgVWx3iP6u+14K//LcppG3lK5cnB3NZzOLKF31GfDTTCykeBL9nLzAreVsG+eVf+694io9rwYsdudcOfj+QC8tsIof27ccHC7Uz8NVuXLd4jOROB/GP8Srq3biXfs1K0BwG9bE5/Rq5g+jWeM3abrgnw9dm/CPvm3HpPzlyftYXPbIKAr9mQIiOs03hVVT50LrlZ+1wW9OMPXKzIW2NPp81xxvQJjo9XvOPjfuq81lf9MhqaEiPbIo9cqvpkXXmj6hg67fX3bZH8mmrNdW2xB5RDkzVaz4LleUyPMhjVAvMseIGRC0/D41Z6PRrjzhORW7cl3m+5eNc8Ioo2CP290X5MwuueSk/DPwrf53542sixxevzx+ZeikFbVYCD0K3AWKqvB6ZEa9i3AkZ0fniJ1bq8P6oer3IqaPf13tuNnmJ+bHDvVSIzCC+tvlJ3Fr8mcYbMMnpkUlcgxpiytKj33J/DeTmxbOrwy9BsN1eZVKh88WLeKleUjmMTl93Ys7s2D2WHywiIzApylHE5rNEZ2F8Rjw8f4TXiWlh/zURvJzTI04zZmIz6KsK4DTBMDpjIILmq6Bgj9wuYjlFKP2MwmSDPyQ5Vl2m27XxBPNHHEEKuCZ0e4R974YlIqD1azwZE54Mq9an5byKkoiEDxNunMciJjz408wIQHXoeqSwTrhsiOD+CMs6s68fumFWWDvIV4GuR2ZhOLpuKya6AM2QkFx501hwTFTAUl7FyceMr2LHAZ0iGG5nYVtMX1p8jcY/MretNL00po4fx2MjSFJodYOUWl0npeQys9AHBLC0Li2NBo03YOJHYLAK6q0OQO3XsIyj5sS9pe3qKMyLz/hHxkPBUQNy5xmzP6I8+VHYktWq6RGdf4TZQ2RpY06YsGDfBJW6bSHRH3OCEeVB8tbkAG1pE6Nxuh5hp2Dlu5kqbhtqfM1Ycg41yauo8KHdc121yYe23B45TQ7wSyfadwLkwrA9eN83vs0+pAlyTlmSLU6HJ8g514XGG0BgvluJYvrpoOoRnuz9pZ0avIrL7JFB6Iqeoen2FjJyGv5pqbF9aNzX2aEvrcj6gqxouFZGL0S/ziA6gBvI0lIqeFNyyK2JMj+rL7g+W8dXxWHAM46rq+q8isvsEdAjogxReWcyMm5PjzwQ79sLqYbEoTcBs330lRns8whP98ikCv6UNjXDtImmplRG+JC6ma1D9Y+ME9HtoHahGpbaI/xIyAhDeySTETtsi581p0dUe2Qak7HEE1yvxo5GUBR2RI4c4lgE1V9mQ872mgl0LJMRw6zcv3wSaOO+kt8OtlVN6uW8ikgUJbYByIboz9hhzRU81obXU9Kpj9e8EkRngfsL3u9IzXtkEHwYomQ7cSlBVy8so76qjqI9AjB35U670PwjsqqwjKd1dRTskQWvouxPnyYgFuOhqBhnO8Sb3AIe0COCu9fw36BcxPR+QKJM7j87iIUO1HEeN1TVS/XItZba1qD5R17tkE9UcCBWwvJ1JyQP4acQGZB9lxjDPFcLYXhGaLwB+njN2yFnHAwRFAWwMvA9MadgcB9HDogIrnVUFIfy/nANaDIiXXfOa2KzbR0abwCLqZMnOBAroWCPLGSEpQnZfXvojZQ8uXFtisp1sVyPnA5Hg4DLMYMb4lmdhb9w/TNz54vjfdgOLUdYayoW6nJdaDLy5bPJjXnwqyWjLQ+dN2CQ3IH+TMv03sMo2CP3hecgVyNPr6kxOkaD5KbuQkDrYzlvAI/CfUibWPbqOzW2gTuiD25kcbBQUjvXnjLHD92k3whftzZe44RulJq33WBnhULT5484seWZPi6YVg053oDL/aGbZKtb3sA1F1SK1q5nxa2JyEP2yOwMb/aYbox4Pw8oByzAJamY+KCBY1gXr1yhyqDbI/zLfsnftYX+od5IcCd4VWJhP4bc/BGGpTfIDvHgZpHhqR04LdaP5uehNYQu8yr2m2lPN4XH6OF1OVtEab+mI/jHeBUvtHjfTumR7laynD1SF9t5/0hHofOzauO+q8CxfP9KPupM+12ObuuRRm7u++K8+E7CO1TSqa9fswoc87tv+tfwMv37Sd1NoGzdia6gIV7Fs02xR/R58ZX9QIgtA6tVw3qzy3qkIV7FYphON9Fh3oBG7sOToCF7pDBe01Fo/pHJS7zvSmiKV3FT7BF1vvm0U3pE7nQQ/xivoqWls9ebScL31uGZuHB9N2GZcmctzKwOZ1GB7WtV4kow/R2YSIz48S3S/BEBoLLFY/mtBvrV+ohHcqct+Ji7ciCvosioktnq+S6njnwQ+btRdbvyieqW1oTPsHXoiR7KvS2V7S+2U30Lh7GPig0WtNFbU+jkAPBQjRdccwpXhg+qPYJ/1MCr6pOQOyaeYmLWvUlNyUbAd5ALyICyQx9KX0bwCy6Dv1zpJS5FP6y7rXkBbS356v6Rp8M/wYe2Gf6RYzW7Wy+8iiuh34yxuTHrTlio5yW6xRffYRlpxs+6MetOaGqzEO/bHl78rJ2BHqfXKXukwzKikezXxvuT7rqSVWg8Rnq8b7votj3SyM39sjF6RKkSL/bIamjIz9rQFIMnhz6ftREZGdhNRNgUZURxnrSMgiHBZ3Wy/L6gR9j9ZZitFCN8aLHG5OyRXFvDqs9fdtLQDRtQonkZ4bshoBuceblxX26aXlyDZynX92XcSvblvmGbvhV7skYEqeXHjc7gqgRNj2wd5vSIjCmsADuOzcR112+w8zISREfhUWh1Qo/ovIrjGJLK0+r1IqeObDNcsITx9DUzBp+vqAKfJV+Z0f/cmh3gqd24vD0yvYoqJoxRfIjlDtcOqMvNQ+O+gwt3acdag8aryF5TgKsXfRGfV4c+nxXk5WQRp2dGKD4WUZvwIQ2BE7tiK7jVama+rTnnFW/KFsVfsUSwUqyDnB4JutPjyikAHhJvE48q38PCfNZFLKeMiP19hG3r7R/yWnmVdXpT0OyRpuahzdP1A8P1+Bq+azrdGdzQ5rNaLmmVGrwBS7klMi4CjrwBcGGKvzoTstgCHojTm3IyWWEDRjWzKTaP3mHzinLHltCYs3T97Oh6JHBdd9gZ+k3Vz0q8dgjTXRicK2KpjEwkDx9cOwBlIircp/b4R5bG10wcKzwCYzrww4QxP4LkMitCIlnWj6jO8IRYFYpwkvWNcE1Gzr042XNdsxu0AVq/5sdIUD9A3a9KS1uIr8k4fLmktdrCPsON+x814Kft8Rhp3ThNj4A6IAnmRyb3HM89ZF7ggWJlwUzQyjpEJlDE1GxgXDTfrzF4L+wIXbwW7ztOJJGfT1w+VVBws2R6pJQP7cdRa3xoqgLPxekNIrKc3kdeYBteeOY4xFsDLdBn4mM5kUxgeXj521sHBRlBmfzTjL20LtR4Xz5ayEjVmlEYr7mTMjLI+NCQY+2rlBG+15oe0Ya59Xjf4A+pFX/PgsSZEVGPHH2CI7PwNbyPk3KyXsdvot0skRFjuyOKRJ0XfzqSDKS+i4VSBYXxmgf1SIv8rEvtEcO4JiOJpWiD8GESnBsfhjGWjvUGm+C78orTjIiUygj73AiF9NpQ+zXQzxfaNJY3eHUUxmsWvIpSRhjyi99kvIo/w085vfNMyMX7qvNHoHeCieNHSKPjHKXwPhMWiBlBb+yH+aZM89tWM0wZZTJivB42wn+zLrT5I6bkic/4FVdHYbwm0yPUnwEQvyIPRb/GDtsiu/JUr7nuZ3VEx19wtR2S1S4cfzaunMHO3g5L0mw3tV5TqYyYH+VOu9DGa2TlH6MvoxrOTnJ65CJTRZl/JErGBhsd0YX7f9pawOZC1SP6fNZjYYwRb/M8xvfpO6rHZ+G+Mfkye0dM4TpmtOCNMnxZG6VtzXXVqvo00OL0+B61BYPqLi5nqQ/NFr2FGblbBWOycdvi+jVKdrV5aCxNxgMbZBmdICLRg8hnIDeHkW04jrN3wYRldQ/nDqVjgDbuutDGa7hDbUxD8zbWhj7u+4s4dq2ovJP3AAp93+NMRqA1xwz7Q2y3eYJlz0a7bQ1W6TxG6nxWUHTbATNu3qD7UAwWOD9jHLM7cK07b/r1zWGeoiyIQngcCa7INaHpkSAcetxuc91BDbqxyeITNne0QKXVkJMRxqD7LD3XPIY9JxHuqtnngDFr1EDFqwc9vka1R3g69EByvf9Qli20WA0nooX/LsIEzguij7lb9imOCP81cSu18Rq+G0aJ2VLXr4gc/wj3f1lmjYYg52d1rP+iNFPB3PStj1mGv8TWidle/TjW/SOqn7VkMOaDaHIZtU/5LkazHbOcPcIWhIMdQGFePK/FJVloazRwfi9B02a4KmviIf9Iqyjt13QEDfGPFOcqdhP72kCUPl7TKrosI3l+1pooWSe8k/CulB5bfn3fx3E+YQs0Um4LdFpGmulfbQ6PkZrOynrkS7wbL9CoEuqyjDTEY7QxvIpqfE11e+RTvx/0+9t9ejXaOeu0PaL3a+rirLWVv6vhgXlo7aLTbU2+X1MPBT9rR9FhvvgO65Fm+jUP9327g5weeeGLXwVBE47kzen7lvhHMoam3BAVnLd46sAT9ZMx6HLLmMOp9V4A4lVkxnQyle/3e8/yjhk411Mg3iFzNHlvfv9ZPOlsPPr4C06Fn5yBDt+ikspe8JG+WbxwiAb+Q3wDf8pgu94L3qo8ELeaHrFMqyO4OIl9udsO7uS2BLdmLPcAvexZFVf7ZmkWr9a45pPAiy21G+crMgJpvepBQiEf8IRPC8BhOpTLh/iIR9SjdWGmcqcteHJbAlVG1sD3Zi7zpMCbHKtBIYV43xZh0wyKbiJoxmadNWPWPDl0jppO8Rh11wnZUL/myy/R3ncd3qGSzumLf2QlBKrjsT42pe+r6ZHq4zVPh39gHaz3zVBmPTk0ftYXP+tqaIikalPGfffVfk23/Kz/8/bIxvjitfkjL+vXrASdx6g2NsUeueihK0+iW3qku/aIxmNUHxtjjzQ+7su9HgXZrImCHhlcOrbTJr3gPfIKgAdB8EPuV0DBHmHOK7lnGHbgBYuvHS9okaLn4XFfu/rdtv00cUfrC0l+XU4eugAR+to2cvZIkFrBdVw9y7l5aNxTQobxmqacC8/89KsX37aWdd0eyeuR6nHO4/5vY47h7usir0f2d3HVnW6ET+j9Gju5hXezuvjm5qENvGhR3E6Ed2KXAq6ZlQzwX6reisbw4Dy0aRBXnVtGYZyOu74jPbcup+3XUOZPBU2PsJTIDJYR9jyAwvq+GW+AwZIUtagXYkycI2LazPU55mriSeaPOM3rkQ71uLBfo1Ssy50D3IyHn6vew6X8I0YgxIIPkQvIF7wj/UbCH+vgKeahTWOKgF0Pun/ETkbWTGu924TWr/HFjZ2nb6oG/Ab58Zr9TEYkd/I4ObKRXJHYOpydtoyxB+azcsfD6N7fN/0+N2wLqWe4CLnlFm3m77+UpZpbJmVqPeh6xCKDtbWI1xxUe4TFrlC+CwLelbGUf4RJXkWwBz3DlvwjfK8yuWdD0PhHdD1ie6ELVcO23CGz/SGkf+AnKOADT/B1DfaKdAo88EeN6ETNP8Ic7yrecYeVQ/OfBuq8eJ4suK40838FFLg3FzxGVPAA5EML3BGV8jj805aMPNSvGZF245EPfWDHtTi9G+NtHkeY3H5YNBLGYJyTTb4uin7WWeo20IY1AXVe/Hj0U8jIlVs1FGIVPrTegg9t3B4fmlrpc/bITFhJ3lE/GBtWeBMMjP3wizFhPMFO2fStINjJYWy6TSjFoowYPJVl2DbUfg3P+NB+VTbUt3/lLKwSXsWe0c94FdvjZ30gTs8TzDnfw1uQhXTY/wQNJLWNzg4W0u8lDOnQmjZwK0tkBJrmtsw2HWqc3ngN7s28n7VEj2BbIzLdIj+rGu+b0yMxMVuBcX0JtydKz0DABQeTT8UiDfoirAa6vro9IjFPh52QEZVPiaWirdnKOMFXx1L/CBu6tCYD2a6OmxKLhx2GLbW0D/CzSqrvV+E7uDFBiCm9IQuEpcjwNzDfLJHr4Kn0iHHSDe7Nr6ohka3xE5fSTD6E5WsKvJW8ip+hHRtHgoxv1lrf9wH+kWCHMu//xIOiJMwIKXxp5QwexOkH/L4Iqxl7pMQd8r0BBdUANP9IILQmP6osvwW++AWvojRMBkjHx4iuEP60iZpXC/q4r+bN9KOZwYw5mSBshF0Klo7moB77YKewm1libhWbA4RZpgKqokyPcLMlqy0HbZ1wJuiu/1Z3gxbmjyz0yGkSoy/e2cHPAb0b/l5L5gh09ZX7rOkRlqSnji0ZFUUXxw79wc3EODmyP/RtJ+xz3V+x5fg2aKWgxhBoEZo9YvtYPlw3l9qDPu4bDDFxJjHGVUKBL/6eV9FC58IkTnGQ6jzGRoZHzZAV1MCd5h9R1/fle+EFZN6jptEimxpMbJwsYLop3DPPfRvk1goxXTf2AqsRT5emRwK4sOV1RUSM/qGmAKzYsa20ei3P+Ue4nbqpXIxzjtfsSccyj33bMb/nlM7zQfOP6Pysh0Rk6FhoVQe0PIVt0sYxUefPPh7nvay2H+/GSMbYADQZYV6cxl1h3gQZ0RpoY9rvicGJitCnGEztvu/7gRzGYJ5yTW5ZbY5p6uM1fospyaG0X9MRFHmMaqX1Ed4AtQa2WhYd5h8pjAV1Bg3Ni98UHqM7TY+88I+shGbia6abwj9ye7WsX7MS+F/nHo3aC52Or2mID21DZETPrrbuxCoI0jQFc5IeaaPGTJf1SEN8aJsT76tkN79O+ONgfMAHCNw2muMuy0hD9ojTSJP19ND8rFtWVT3ydNisfk0tBCcbokdUP2t1PfJ0+Af0yKbYrJqfdUv1s7aMWZf1SDM265cNieXM+Vn7bMw4G3/7cLr8DZ5w1g98gyc+5AYe3/Dbpb+s8MaC7+IDfMQEiWTRt+3uwNvY82FvvQeWmudzJj7gqv3y8I/Foezv5Js88PwbpvtZrdRcDR/FWyz3JHBf/bwO4lWT8lT4LrdFfGwibVB0rWdxRWhLfG35lu3Y8LycZU8bX479l479hRd8mP2d/f1LX9Mn3HkFgC0c/itPfWXDAfgSdmp9PI7pOq/gKCYIN/RGH+EM2r20IR3y0AM7uAH8pc8r7iBoT/1K7vkmpGtVwE+KT/rCMqGwZRbFk3KefcLs0oueNnwDfwo7VAy1PznwCbarb2zH18drumOzdppXUSu02nAqzzhpB321j94tPrRmxo+fApoRVx8NUWY9ObQ1Fw3/ZbxmFehBSbWxMX5WNbx5ftUlH5rc6SD+Nf+I1rRWHq95OnR6vEafh1YXG7Oentomzl/8rCuhobVJNmc9PblDeBmvWQn/mj1ypaRzhfkjjNtOnZxtVf1Rl+eP9PO++JLlslfA+9eFoUH1ZqjXrPcHDUHXI4+P13Avqh68zwMT2UsqIa9HmPf95LuYc906gtxAS9+3TqpPiy/OMbLv6+jE8y3/Un7gV36tSdUNwVPNr8fXnZgawU7lxpg5cXVCxHy8r4MsNW7cyKD8utDbGtZLHe7VmGGVs0ds854zj/mxM7iQ8Rh89/q3nZEstgA9vmaFefEYpFcZiwC01ZHTI8yyAkB7lUlFv6eKahDhrfSTyjGEgdavmTD7nsbSomsKmjy2ixVsnrRGaqy5DFfp15giQrkaepJ/oQJyMtIpv7XmH+FD0pF29VjO90t5FfmQwvGdPfwciKBzS/KcPD/uNHfQ4/Pi2eht9ZgGllbnjdRlhPndsEQEtPVrtgXR6DwhbqcqWM4b4Ik48/EQym3rreAdCTASvxVcLOcNIDCu5INxw/mZNUf8/rbDKcLwXmJ+22H1SBLdHnHCMPUrK/OngqpHpgtuCclztzoK/pEs3ncur8X+23FAp4gKNvvTFrGGvn5N3s/KLc/xM2nnVtAP/IgozVlg3XgY0ckcK4Ya76VoXwVpOfVhf6e6DaPpkXMLmcBL6NfawVfl5i44EKvzKur2CCDTIyxxb2gHeW9mP5HtBYo/ao1XUeUx2sqN1wRpwM/tVDS0wduzc2YJtikOfVnGKVSeIxdTYKG5he9lt3H6VjCMVoLuH/lx+slLXFddILJFqPwjPKnPdZXXrhk/K5d8aKCj7rmuTlvjVbxV3UFbuh4JBL21GWI/PRidwbtgcOYpESnMQiyrWWg528ixaHuZeZXDtxExW1dD3j8Ctctyq5u+TwKdD23BvfmLtqtjqT2i8KH5CxlpkVdxeXyNHe7SrfVRmdoR1RIP7xKLhYltu2h9W5HnnEN35yY4N36V2m1S1qqhhA9t+roBHvomoPOzyv5GdT1SsEeyfo0tZWSCesSTMsKP3hBJ2vMjt36NqkdMd5u2/p/AmBwMidjKRCfr2Y64Vc4OyMhkN/QY8hx9ZWDbI795AYK8pCKKegTp+7rBh6bG6Z1Kzjzje2UO36X2SKZHptSCZzISViYbbwhafI3mH7FDwS/MRuGnbFUFO0TNEct7brnHyCWKZrcTprh+BjU+eciFGSqiTEaMuBsyovZrwGYVpVGdV7EwfyTjZwWbla5J17Zlf8YOow/txFroflaVnzX4I7SF7aZz0CVojYBqAUVDvXYAS/9ATgJqhvddpILwQmGO67CjOhwKpTJyIqpU2+irFetQ3FiWVvZxLfeP+ELeWAJdGbZYU6CtgYjlPM+3sl6YYI6wlLyrDiUX7BRSMGKVmrd70EpOyEI5j0vpUwVbVlWU8Y9smXdyr11oPEavflJdGlTnF755vcQeydYmAbUNhXAiLPX9ynqqKejjvpoeEQmehTGaG0j7bffTdMqnLEoxbyA3IBcswaLhUQpHvkWm5nKTMCs7IBGaHpG+Oafy6PHTQIv33RIrsdwIptIqWM6rKJtnMTYmPZAfWyPL1+ahafPiOTURPImRDy12L06DYBaZDsi0OUSnjknDTl/IUOlTAQVh74ZEXoMdJXKvEjT/yNl/IB1bQVc8rTohh51AA8zSsrbxYRR4FRd6xHCGcCf46IR06SEuT+hEuu/qGfHAuhPvU4sHJnRaAE7oprfnPBziR26as0tf3LBDUoQn5AIM3M+FVsX2UveNX8Mg1/SIHbpRalodEZE8/8hNbH01zRzH5ArI8SraXuImuGIQAq7pmfL7LSv24En7beCh9fQGN46kgsQMYMOCWgQAW9sW1fyU7ClO7+OgeBOZDafaNdbC023WQXDbl//YAeTnxfOzmxq1ANoaLUd8YNuzBYmLHWwvMrw1C26QYLslLLdHWkZpv6YjaIh/ZFNiJzrMq9hST28FqOtOrIFN4UPL6ZGXOL1VoK07UR+bE6enmF9N6BFu+feP+9XQK6PLMqKtO1EfmxJfo89DayBOj/s4f9038d28+B+Vkaqjd+UojNd0FNo8tEb40MiMEBVkneGFTtsjzeiRwvyRjkLnVXyJ910JDRkSm2KzVoyveT50muf5H7NHVD9rl/TIP8Cr6GwMb4DcQWxdWTNnJtnfW8Ur2zK7kZISzCzzldxdB5jFTYCt86GtzKv49Ij/a4qhsSZ8uS3Bu2aKKd1EXsW534ceyWSaPbYMZsjNQ89z7X3LmECPZGvxoI5OxRdcKDDZJPtzuZk/4wu6ZmWH51A6xlbf36JP2QPKCtNX5YHlC6ZvMVsiq/i6f+Kxph7zyq+J7mftkC9+do03qptoiKNmY8ZrVP6RbvHFr+NdeVo0Nl6zGf0aPU7vZdx3JTTkH7nZlH6N2o3rFj/r/7x/ZFPG9JbPi28Z3R73lTvrYXPmjyyfh9Yqujxe09CY3qbYIy/z0GqgofX0cvNZO4uq89C4Y11VnsP/wy4JqXgEXZaR/LqcW3wx77cKgl95VcnuLzPnNlFKEJhtt1ga+vyRR/nip8zbKY3pfQDMisKdcmKSB5CXERaHgLjOvWgcOT3CfXM/rsGzlLNHpvzu87Hcx9iD2/hWfriJfSsuRqU8F7T5I4/3a7ayyN/Vwfw0TndcYqOogLx/pH8UwqMZx8S60OehnSJJz0CytFSBbo9s2WaIAdQEnoL82NIJHiR9g3mj1oSk8vwRS9JtrAznK2jUWVQ1EjGnR7jv/BjzH9V5TJ4CWryvcThEHelFle39nH9kYviLGCzBTGhR8NJpQgR6aVo9gqcZVJ0/wiqH7otW9WqR/RWRk5Eg07tdgKZH7D26hZxicyuh4B9ZxOk5R99xY4cY9GyJeOn9N21NSNf8I9PH+zV8KOILq2IRyroqdBlhsdlee1yAxvN8IbhppmllkqWCf2RRSFJYxsjVyFLBg9YR3oDieA0bzO4t6h8Dex5ICl/kjScLgzEOnRZheD9gfltVA8N1e8Rz3XDo6RZKe1D9rPMY+TZQisW2Agr+kQX/iOThE/wj4RAjro1XYUTb50eOnzWnR4Jf3qUfy7sb+E6wHw8pqJD71kzQXwd+NBpD1wUZKKADs6yxiquyVGl65NzbHYau+7atFjkHVY8seBUPq3NdLeMxYhn1GXJdOTuCMIBHP4nS8vnxUHwNM7HHymIi1mA+EpZ7LrW6aGkbxi0xB0Cj+c0LLPeW4fuSxqq/W7Fbk7dHDGPgh25HfK+qHuHD2nxoS+0ROxRcV3PJh0ate3u8ig/4WZkvWlifhNoXLBvU83UEM5F9hMphO/QC2/DCIHAMbwkR6yAuIzh6EAUZwb9tjaZFhxrMzZIFr2JVGVlqj3SNV1FtE3X/SCAzTbyKcikBC3lpeCJayMs3aNGbkWcjhdE2fBOXc36PfcG+VwVl80f6ROTYPnReRSRyAlSXkaX2yEDys1Jbs+BVDHda0iPL+Ucye9ow/4CpIShWJ2kCJoEnGQQDJLuC00B6+PBzMDHGw9L+H7PKtcuDKNEj8F+tcfloUP2sghUOgPezGpbaIx+GQkbADvYMxxWObR7+bEtGlo77Ojsptf48iTiknqSHVAtLZWJ/4cFZ+BmycBOmp/CTsIyImV3UEJFSGTHMpBMGSa5fQ9mbVOeLX2qPzLN+zYj6NcIjNZPb58dye0SufWDcoII3SaeMY1Ap0Fom1NQwWmnBI/+x8BBeHWUrNykAU1buVUKpjJx0o63R+Eckgfe3z3u/6fPqWO4fuRJVkpYTyPR5IFlxnx/Lx33vRDopiYIzz+inSG9vR++oiCwUogkxLrIRvX8e5RpYAPdIFfOqXvQye4SZtcStcWjzWX/vxZg36N6Jz6ujYI8s/Kyz8FpssG8g/azWUr/CUyM3L15x9zoiwd5P2ICgcOPcOUvicxQYaiB5RIyKtBqPHWEBDaLXLL8gIyMRAV1SlJ6HoekR5pDm8qxaPt7GofOPHA5RgXjkCKiEpfYIKEwy/oXjcUzjNdORMF1bgMYXr/VrWBqzyTxILvDDtRs7lmOHcQBGvDWELoyd0jh9/w96SoSogw3bJ2K0e/DYjRDIAl0Nmox44TDgtpXXzW1BH/f9FvtsMhtplW0l5OwRNoeukTzC3/WmE4e8UCBLoxvGrJEwAluApVZNfdyXm77jSbpLnoapY/DRZ6wsUy8OAj+gH+6P8O77/2E9d6I4LwpWdBSFR2FYfUROkxEeh0dJXGvR2KdAbq4i908ss6ojHpCzR2wLCtmS2ujUPOktWtYvseXjYkEtQbNH8uvX4EiMxJyDSEyZtNUYLxs6OGcNNgU5e2T8uysCAijMi/9RfZ4dIGeP5OwvjiUuwZRFx54fmj0y1dadaBel/ZqOoKGgh42Jr1HtkW7F6XW3ABuK02tI1J4clqo2tx5fJ/xxzCfnbAF5rAa6LCMN8SoW/CMdhWcpjosmeIzstwdxbMrnGguulvlHuoKGeBUL/pGOwqo4D+1RsOCrF3h9hOdVH8pboMt6pKEYrI2xR9Tsdivet7sF6FmNKICNsUdU82urAT3SFLptjzTSyd8Ye6S7/CNyp4NozB7prsml4lbrxkk9MgdxMbCqqC90nymvWtlDFb3KC4B6BP8j97fP9oKqU3JYFItoJLKCqY0s3lelooIsd05w7rT4Gt/0rG7Ag05Rq3ioIMy4iWK6bTuLK8KLtVUMLbNnWfBE9OBxRZ/Eewl8+gLPOLx/ZafmfiK+WfEJMFO4epu4kNsSmHGFtEHplb4evIxaEgLyCPwSS/05N1astjVd6tfYHbZHgmb8rE4zXegnh2epzd9L33clNMSr6GxKv0bNLrvqUt9X7nQQef6Rmsitp9dZ6Hxohy96ZBUEOv9IXWyKD+32Sum+vYz7roaGeBXfb4h/RFebnWprumyPoLtkbZxt4vyRbvEqdreSNaRHNmX9Go3HqMAbUMSWwdiz5KzLeqQpftaNGfdV0rkKr2I/rsxbx7at6svAF2SEz2zbaW/ir4r8eI0dBHVWID3LN1lMyZ8deIs53swJgjoLkTeEC12PPEqndB78qcrpxLw4DXf6FYOw8jLCIxdQlXnvaZDrkDjxYXCdsbRUQG49Pah+4UJBBakVmMjmAWBW6nnrzNdaE5XX990OK86LPv8CF/XcqsGqeXtkP8WJbZXjnJ4Euj0yS3A8I44r38Nt3R75dBwtYrC2I2j1z98JvhU/Afmz8Ug70O0R6/F0HEpKltXBsSRGkoRgZeT0iO13QoMIaM4vFiOXgjGrykla4h9ZxHKydIRqtx/i/bCFdrmuyhbWGKryPLNUsOpUBEuq6xHtBytI7/NBcxg4P8kjzIdVuY2Lc4xkeDlIzw6JxeAI4zdNwU3Try6EDeFiKf+IhJaNuTFYNJnnVYrkLFowGK8IXUb4KLHsRpwSTUDjeZakqlPiVKiEgn9kEe/7Xcbjfw7/SnoGKJDKBNtN4ZF1J5wv7/uZDcAcJ/h0JxkmbfiAtjz79CXwmGFbFrQF3LLK4vegeY0rqwHdHumhwVqIFG0Lqj3CMt4RU9zXCij4Rxa8ion7BbdbeO1ZiGQN2OQQd0MLeNA/wn3/hu8nogy45dv2VTLChJ4HpsedFKv6zAJz1PYjdx9OLyMsY85tXJktPqdH5o7nxzsuxqJ3Aaqf9dtnKSMNcOZleuRU5VUMfiIJEJRj9KYli/0BPjTDTmL80iSCKb6LRUD0VqBv0NI2BFerHfZsjweux/fxHY7oYM6uu3OSK43Hke/7wpGRK2pU61Dj9NbgQ3t/knMlZzbrp70/gu/mAA58dVM6jbfGq6iHJWp6hKWCAY8481j6Du/ZDVna3hs671OIxBj9Iw8anV60HXDjtpTrmAWhzHwFFGXEGKduM07wdaHG6Y3/k3xovkv83RVQWL8m0yMLXsXvIHdd4FVULEHdHvGlUiAZ8Y8o1T7yFdmhSLWDLFiTOPI4WFdJMDCm6ZLei+Wm5YbKcpSN11yGxNzXOlQ/K0+kMwDvZzUU5o8seBWlymBv4UAmI+3xKi7nQztFrjxEDMpB0BVBm4jpzYTHc0/gUIK6YzDEpTMG0RKS3UFYTsr5AEr0iGHsdoRXUZGGOfJ1I0xXmxq8ApbyoZ0n4prExzf7KSreIKzqYmoKy/0j70W/H7TGcAyKgBJNDeZ4KIRneoCMvTfuW6jw3k90M2Zk8gWMh6IuVECpjJijtYIVmoLmZzUlX3wmK6vjjJiQFWT2yNaB+x63DG0dHomKkfFcPj9yekQZr9mXjf8+6tCYZJiPSGdEQrB/R8kHw7j6eQb7oqDMIyKTL4ITX1ollMqI340JjH014CQQbQwbVtVx06V6xOj/pLIH8YAzYtHGyP9pAcvHayQlKx9CZ4IlRz9gt09seTzapRPMN3A2GCJwiCUJVHCWxFvlot7/XFlNltkjdouETyr6asX6IHSkI25rFeTG9BQZgaYdFeYZ8d0GO+R/PGnPF6/PZ1XsETlMYBJf4C7aJMFsaPKbibRMA/p+EL2G9xntO5Fv5zjLuEWONrNqU53TI7aPieBWR2iW9HlofSqh158rm0pL/SOGcUFdhLc0zD2lRR140poO1devUflHmJ86zJYrk1juke9zO0z6kOovyfGYB7QyCXyBTc1rF217z037uVzfuG7iBfuK6K0KTUYC1433vUdXhHwu5Oah+bFj36bV/XuO3q/hs9SN5QKfDMrdvpKuR77r27ZZ1vY+D3J8aOrNZJ5105dzZ5j1zv9hjP0TyoLtB86+MD0CmtYQENmCXZzjgHNHUr8qATJCkxG8TIze/m4g32kNfMuqkcdA9yzagW/6nhxvmHi+1csyzC3L99qz1jXegEKcHhgh5ViHxWo1dHo+ayG+plZxPMItoX755MX9EJrnQ2sIpf2ajqChdcILNmtH0TgfWlPosow0NS/+dc7P2lFoesTw1+84MNtRHvJgDXRZRhqKr9mUOD2tXzPP2yM1YIORusAahdBpe6QZPfK+GVF7ciwfr6kJNhh8Ggw4Pj8N1uiJdFuPNNJIbEyc3tLxmpbRaXukGd6ATYnTa1yPNIV/oF+zOfZIZ/WI3OkgGuJV3BjegNy8eMbYeMlTw7clL3Fm9iJ8g71v+PH0w2pbjr9yTNjAE37doeeHU0ygd3hKCYMEn36QW8Z+iEOrvcGTnb3mcDWO+/QG34hi+wFX/wClqWzhid+08WKWyj9i9FKT8FF5Ll6x8lqGt3iiigO5rYxYJqUtfPeX57OhtJVcJl98KuA7eEKqxM7z7CNSbYUq33L+zi6dv/cP/CReM8d2HHtGr0v4WPJwXs3sV69gD97giT/4e/kXNngJ8pc8vn0lN/vxDe7AL1t4Qs5t+y8kQz9KSYRE9UzYLD7eP2aXjzzVkx379sB5BcVE38nrUTnChvYdm4oRn/j9TNwQPLPePlz974w+4QexeXj/1Su81b5qs3aJV/FVh+2Rf41XUZsb8MKHthIa4h/ZFM68Dq+D1d0CbKxfsxl9331NbXZmFk+39UjQzLoTGzPu2911J7o7mNHYuO9m+EdyftaOTBgF/APjNRvjZ71S5o90y8/aXXuksXHfzdAjpevXPIbJ+Pfsh2FMeX4afH0USqtEjyjnzFutgQUFUG/qZmHcl31TDkxazaKKWuM1PBgmA9h4FNq5LiaDwPQLM2cL9gi3vExItvo9y7+UH1pAXo94lkXBHRWRG/f9bXnv9+9kQTDPt+Q6/q3jTsvu47yKhOkgwhihyU1Ijq4gzolWkFZps9gsdYthijk9cmol7oKVzkrf296ovXYx5x+x0sD2/queHF0dzeLegNm+5FL0Y2dgpTUE7wlQmVeR4FAAmeGFN7hBJhUNhQOPwCqhLcnJyIfBCVGfIDwKevLbiw/X/SO1k/P+tVIzWHyAmx8JyZ9FsbMmsfG1Dr1fc7hiv8bCuF+M4aNy+eTliofnDzwCeTkNBXvEIbYTwGlCxGCf9vIh1c8GTQGwhHiGfh9VHjzQ/CM8EoJ3IILyUtx3FuRzrUKzR1b1jzCKLoSckOivDZYkRV9IYf6IsyOPfBXB0adJa4pEs0f6LkazQiYq02do9ogdpviJjTCXMqiTD0X0fcu40/RIiYzw+1TyTPPxiKqwk9HKijvMoIzmItdZf3qu/BrbtPIc2+JyOgp6ZBbG4n8ycrqMrO75oflH6icnUPs1TJA0BcQ+dyCuydKfxDHRMjR7pKBH2P7dX6RNxN3g1rGuRVXxkHgEJAobTduS7MuedeNd3SLFYkbHDD2RGxpXZn0fwzyDtNyWtcrI4IptjdQj41TeDNMlo6gFqPNZ4d5mydGmWawAfV78Tej2mE0l9GEouUxiwW3SMnR7JLd+jRN7fDqg4O/BW3/APhyI9QSI8QpaHGyImZ1QQHjwzmHcPGB0QAjNbsAnToJ/wJFQLrDMhdmpIS4jlSzTIzRKcprsiAKsTlLXFNT5rEzmtkZycuM1/dBNBHkGv+dV7IJB8pB/xCG9ZyE3rZ0c4HkBUeZJ4is7ogywhHj/iGLoK37NUrJWLNESxSRPF3uzv8G5E5ZNKJeXy6HgH3FERxuJDIXf4JerzbN8Rqj2yBq8ivl58ftvXOKrNAaSM29atYP4NHhgXjwn88n4cgi6IRYEKTNSBH/36EfeGyKaldaE/xMOcpSHWYgHsmpPTNbTOHkPkuaFSESRR7BTVhAl/RpQUoBxB/TI4b38jkeSV/GqMq+iZo9AR806Tl3qRy94FTuiR9T5I7oeMY8WfAmeTGuALHnGoRAYwduadVydMOvAerjD3snqFe9ASwSq4gwkJk3K2BWvS7ngCuM1ih6RV26tkqk8RnwkeRWr13ndHhnEfYPvukeQOX4kZIS1l0UVOT2i+Fl59C4Tn2m8IzzfxKg4FzxGY8lxJhoTlKNIFFaMsmPvxNS5GRM749kO0kPzKFYEMoO8XB5l/hGSmgUxe1zieXseqPG+06w/Uz05mj0yj3GxBpCKGNS25N+bZvZwu1i+DlbfXSwD8DsSdPYsoZ7M3i/8EAhfq72gwzNdal04OZOOZQ04c9GQuaYuSFC69I3k1MqjaI/smNR4LQj3Ky930hg0/4hkImVpZfpUzR5xxLISfBgOsCipsv7I6E/bhb7uhLoCyO191zJzTZyROSIZNoW7WJqxDJQG+0ytjThwKGuViT18NhriUJXkAc5BdqTzKOnXHAgtNBOd4IFkEm4Bmn/kUnTWeFh5WQjNHhHFhsUK2th5Q/VmEO62lUUV+jrhqh7JNIHNpWpAVyIyMb0dMob6cHeCQ+LmEYZMeSgDd2+24f06stmpcSe0ZOBew7sT4aVY8m56mjMy4GjWVuXgmMrEFkRmj8A/S86+1nwHWrwv26XknFVPjmaPzEQv0fCwVYYs0r4YD2sby/s1n0I0TRmtQPIRi2FuJmhwfEtGr2648WkvtmEDufkU/B5/JA2ChggbJfY2hxYEL2wnJvpme6Rg7NC0HdFcKAB1UDiGKLNH5J6dQDLPd82q9OKNQY/3rZ0c3T9iki9/ckCeOCeCKnZKC3u0D6+nJEPTI3MwQuP49ga//xTD7fXFcmWDKET2ui87oQf3n0chHLbTt1/4mYlSDw0qLcLppR7vm+SjnadD3Ny4yVlejdhe4oa9siYoxz/C+6kb7ss5I2fxft+8bq/8cvNHzmLLM39VXxJD948wP+0PbvwLka1gF66p+9hawwP+EcPet5BqE8HOHDu7kzd0kG0LysVZHwqH2QPbmYlzHfkbO5jJI1PBQ8KCohZhv2cz51VZDczpEfYJ49a4lBseBJc5k/Y5kecxGkByatzOnH9k4mw7l4vq8ikInELD3A48ldY652dtFXn/SEmvuTXoC7rUxqbwGN3pvAEv8TWrQF2/Zg1sTHzN0n5Ny+hyfE1DcXr58ZquQrdHnp6flXtX1gJi1kE5uqxH1PVr1kDOHuks9HloT8/Pyn3BaUF4aHn0LsuIR9Tna2Nj7BFVj2ytOp91DUyNc2NuMGNrOpk+JAXdtkdKXTpVsSn2yO2VIsvdiveVOx3EP2aPaDZrEzzPTaHLeqShQN1NsUe0Mb0XPbIaGvKPbAqP0b7OmWfZkqtLPv4KojPxgM+viDGr+PiLDF6LNziZfkkf7zfwU7wIXeuV8lQfcC4xotle7CDvmnw66jmLx/33jT8dTFf+IP3n35ltmfC9IyGOlSfwwQdeRv1c8tD/uqWH7Wsm+lX69gDp9LLHAbwUwAc8UnzQebH5EXkV8bNpfiSGRfxGvOMx8Y6vjLUPvsXTVNBReItH8kAGccXnwzJeRTic5gkR67FHxumSvygD5r6JVw2MNI+I39+aTBj1POg1mRjTydb5fAJPxqAfgkfoO+iVwAaO0A4cncDOZAt7LHBgPtmCfgvDDxMGx+FrODaBvflkCk82OZ9M4QzA+eScTebZU/4HnOGYp/TPcwY/oIcBl5jOGRyEs7bO4eq4u8I7/eUqT4b/AL+hB9Qd+qw+8XqQT+8K/x2/FDnCfNAOHF28IMX035SO/AsOT6YBmFzzLfoMPxFfwM79E1Mv3+Zb8Fz7BanEq1V6zid33fWzyp0Oot8MX/z7DbFHcutyvvRrVkG/maANR19Pr7OwursOVm4eWoeQ5x+pic3h3pQ7BP/Jx2tWRrf9I4040TfFz7rfU2S5iXWwmsI/sA7W9obokTvNP/LC87wSGuJ5fr8x475yB9EtP2t3K1lD4zVnGzLuq8fX5HgDloHZ3pVtGD9mx42s3c3K1t0r0SPKWdwukOw9IwrjNVwuAV8NNyX2yBa35cHFTus4Vvs1K/pH2OnXcDg2tk4vdt5hTWA8N1ReOPAQmB+FO4KzQkV+Hho/Sxcqj5/41sFFe/ZKzh7B5Jg1hnCK/RpuxX1Rdtw8seKO9CD07K66nt5gSB6uv3v0654IQ7yHVSGUmflpPNpx0/zc+JweOT2MFryKzDS58XvUngdKt0coOXaNdWoL9oiTnsjaxWPIvj1qZuxwXdRbTy/YIWcbxR3iJidafkaCtQK+fAV94YSF4OecjDDDywhuQPGg1hF0hq1As0fqJyff9/UonJFgRlhnZLhs29DtkVXnxfvELjERsVXG+SBne00Gq9cp0cj4Bc1TsEccSWhicBGwx6MFX+tzQ7NHeESBhpCqqslxdBk5Cxdmugy0tyNBudIyPHXa3ap6hKV0uwbDxtT9seSLuIcjWQIWWMT7WkQuZ7Dknh/lmaE10JbgZmGj0oj3h6DbIzy6J2b03Tvc8G7wBui8ioXxGsbtzLyecvuvJFacCQOkTwQCuEIlfpraNmecwWc2lnGNjM/o11M4hgyLi2sVYAnaGwUFPTKTFXWaEX3Eb9qy6bSbm/HaZfyKq2Nbs0cUVcokp8k8o1ppFw/zszq+Zzs+VVfbtxxL8iJakt8Zue4cK4qQIJL7VzMvPgFLyx+GxBjJgpPAQXvOYF68c2IwK/q5pBjZfZ8lQ5HHSPIq8pEklDupYBk3C5U3YDxyBT+mX5meLddkhTf2/ndyJmSceYvq0C60+JrcvPi5Fb8C4cCweCNI8CtrSHbIAbFcsf+Iqoile8g4cZd+gHIi9pp3R3iAmSmKh4h991yP3Qbem3wDItEv6/sW9Qj9eJxIUq1u8Cp+G/0U9E0+0WhUgbZWWuBGltU3d9D07RwfmpLO3LivRSx/PnZeAsGIuE30dlxYVE5INAh8SLzVcQINjIO/50Okf2YmMnvBceTlQSM3sLNfFGBLQlcVJTar1CPJnrgp3zvCqyj50Opwbyqq0nRj6sq4UI4DyYc26SKvojYvXjDLGAMoAj4U7PaOi12KbUlkJMidboRxcuzCTaV1XJwQi9CTd9B0oV1i6X8gItBGFWUB8MEvoWIpkRFh5J8mO3XJLpuCyqvIMrV2VUNGlCxKcZgn0Lx0To+o80dUe4Sl0YJSoyfbRcGvKNhUWCzInfzwE254ksk8dYwzk5ylRKEW4TIbTCwGkMeppWkviaX8rB8yIsNu8Cqefn5D93NSPTnquC+YqaKIUfI/SBlhu52wR5avg2VnfU1I64gaDJRruJ0sSVGuBqLFOU+xkQHMQpEhwZO4sDCpR+e5KZz0aUGvp4J5ZSJSao+QOM+l0b8gNHx+aPNHPsp+zdvKvN2anzVjNv/qfjS2JJ9ixq/YMpb7WeXaBwg7JKmAG47KYdHzpTKxqWVBeC7Rr9pE4WtJVkbSPHA70fbvl9F7sf3yO72cD016+lskHcz5Ryg5p9WTo4379mTb3P8Dl5NcjTxqbWkNFccLQUCoemSx8BB0Z/cEFZkoDuLoNYxDItATtIhTcnyYb/B2e2St+LImEEEmT2idq4OS1Tt+eHSx4iBg0R7ZkXxoA+FnHYTNrIxSA5p/BJKDKeV70g28OjR7xN4Ra4FR8WV+1ntV3ia8niLLE12PUAInNxxM1re4a1PvExoXxrkxHh5MBmNjK47GnDPq1vex3zaNh2P+yegLGTl8g8pGcA7yKBaypOCUROS8pLkpzENb6JGpIJi+lZTBLUDjVTSuSfRvq4/XaPPQ5qZkz34LN2SLeolyyKN1LOdDOwULmzF+jFm3EnSUxAfYlnyLhsHN3HgVptvOBFcaCgLGUw+kx0I2UTBWneDU+PYZ9MC0L8J3TsjKnP2JsXOjYhzvJMlwGKEnJYecHplM+27KRE1lMVRAmxa0aAc6ryImZ2r/Vz05+jQUlsbcmAYxaWee9pgxI89U+3hgfd+/STQciUlEzP/oBHKheZ5GHvzGBlGBT+M02mfGp4Nf3iuPeBehO0S0InZszeTKkuyt0JxRmhMRnDpCKCmLnJ/V9tJoeOiIezO49q/Moup5NuTmjwyuX1txVYMV8P5EU5XcNINbX3QO4IPfi2nNhvbx4Pq+ylSo008Lk2EsKr1c4orhhLD5xGDZVCxcDovAf2t3GX6oaYZHULBHAFuLMh18qnKtplGYF88HOQN7JXzR9AhAm3rGeZ1rPgXqzR95BnSZD60h3oBNia/J9WteeBVXQUO8itp4TYeh9WueQ49guPRkDk+Daa1xHl2WkabmxZcsNdlFPMTz/BTgJzHhAN8eqkedlpFGRlGmG6NHlvdrngQs8Lx+3/O+4ptgEy9HYR5ah5Dr19TFxnDmPbMeWRld1iNN8aFtih7pbr+muwXYkB5xXvo166HbekTurIeN4Xl+7n7Nqug0r2IzemRTeJ4vtCphmd6tZz3xY195HF/c7Stf3T88P5a7+7n3O/2teEJD70u/uPV+xdb+xTE96GCtxzFlsZCf3FsHHp4ep+rHvZ7f86/8wyt/sbV8/wq26kscU7+Hfe18+Vl/wlG8gPKw8F1eVH99TPE3cBV8g0P0e3inzz3YoU/aV02++xYlDfNwhR/VfSvetTDpPcoqFRTmt9ITirl3EOMe/KF4w78uvMF38I+LMn3+fUhqrMrI9KpkElBLsDvc1gRaxaqNy2bMmieHxj8ykUO7XUCX+Uf0+SO1sSk8Rvrw1EvfdyUE2vyR2tgc/4iSzpd+zWporF+zIXpEi2N64WddCQ35RzbFF6/zoXWKn7W7BegdNtLWbMr6Nbp/5GX9mpXQlD2yKX5Wta0p2iPnjRRGHbz4WTuDYy27uXFf++7dkzSZjOcnyBdR1CP2fXAC3w6cFutg4OtVp2ZyivbI7L5YeKBc0w4eL7Cnw8UDvIqMFSmomoBtHT0ex5qTEeaY9wFJTmp55ttFNPKzIzef1YkPA7PIjvEocvYID+J78sEAsyiLgB2mnpc+tNDt02Jf69fkx31lSF7DYL+HjwcX5WSEewkSExBEaE3cGh0a6BG1kRhgcqZm9eTk7JGBFS2q5GwIleh8V1zzDllf7Ao8hA3jwXXCmSTFKwEXQXKslgyx6N2jk8wK89BuFryKaYK36KwsKud5oNkjbBdj4A0nFDHdFZDjzDOy0GHKIm4EmZgT0j0SbA1t4O4h/wgXNKxlkHwQllfHqJ3tPe5gKNgjMxHmCzuCkmA8/LxMgJ8aGj+rvUNxx6dDEpUqKPhZF2H479/QP/CjFM7wXYrFCp6k3V8FFz3FHsnzofUFDes9MoFgVkpNqYd5EKhSQP7OpdxbjiIfWmaPSCOJpW/aCvjV5sXL5Jy/26manIKf9VaKwfRE2GssCe0Fk4vz576wnxf6PLScjHw/sm3L9ySbInOCGz4IuMEC0x3u87lj7oQWGRbMmQWebTCwv8EY58c2dwQfgFNmac3fDYmJ8UGU6JEDEuf5O8k7YgqCyhagKgCW8SpWp/D7kl8HK9MjTPKPTPHag1A0MvxIksA8Ox7iVWRpGnhmKjm4ueVfzrwUEjq2Ejc2bealbmqiKNi+ZfM0HbMgdQ8NJ3IPbdNFqc8yq0MyJzyMgozc8yr+FEbQ68o3pSmo9siC5rE6r2Jh3Hdf5ojvuUTnNTHdW2PbFexPCwKsZ4fejdP9I0442obkvaX7zE28RcHPt2hKWsi6CT8WXNUOBUQTcbUXznj/OoQGNKaui5OWGJaS3eZhFGTkMoypSMf1SeqagmqPLPjQqidnqT2i8KEdgh0i2pixJOR8fjw07tsTSe7jhpmUUo/0O0tItUC3B9uMwWesQDzBAF0zfQWXwAxKrnNogQp4u7eChV7kec70CDbSiO+tyYhqjyxoHqvLSCEGK+vXfNr7Q1mcmqCbPCkjPBQchc+PXJye6h+ZxoJpiQxq4p+B06NX8G6L3tgg+ogbcwSSwsmJxJKPN/L+95HfyBiU2CMsWcX4KuvXkNSMh7LinrTGvakqgPHojzDAq8tIwc9aokeshR75cdSeHpE7CF2PCGIzVCeOwUZ0gyYppVdyaApWK+fNybe/gdnD74MQaZ0J1KCceyUa4yy/lEkplvZrvqWyA9EeCbJqj7D0DxXGJK5sQhfGfTMZGQ8lryKac46UETsMSwrzOaDrEUstdeHBAYUHdvW2cFjN6D5t7QoFY+4h62bPvXI8qS4sJHwTmKFPiTh987B2VqkPZXpEeDdN0ZGADsU2fX5+aP6RjCc+Jja4KiiM+y78I/KaDKsDjyLqz8zCUubSZ8ADcXpEB4+9EEj4NdkA7B11KeyIvEb8M+oWtnvvr2ef7/2yNmgL3lecLxkYcXM+imK/JvOPCJJY6Au2VWa6fySQyYkq+9AK474LP6vkK7RRLKaxIMD1xHIbLeBO+2O1XzNO3tEd9lHVxSgv0/6Q3DlB+BVdZsjBiV9J1c+Y8Sq6Z0vg4QnrlynHlXq+pTIiiQvZkJTv352q7X9j6KuGxDj5Dz/NhI1WBUvtERA46hQ41CoHf4jG1G+NI/BCnS6j6ZFgh5L2NQYNwlJQFh/OgmHMbhiOHPAbw7gKbe4wsNXwbjIHdMZdiBatwDh5e1Zqh++vxnVb5HmW/RqQa+pWm6PWll3UHQbeEBWpX51Kdak9AooEs3geY28ANDWy40K/UXz1/Fg+f8QZ3XLGA0F757mR7zuDnQT7srvhfh/uDxjdfWgpeeImGNTGjPl/9+zhkLO9kvYZLhi55tJlbBTk9AizfXfoyNvQix37DtnFW0LOsWFBcrwaycnZI9xO3ThjlfPN2W9Lcgzy+Mq2s4kCLcBT14DO9WuswOn3pX73351wY2yamOpgl5gTb2KfXOqDkzQlSWKqyctidQXyDOzGMk3/Id6RDLl+DQir6Xu20C3MsyxcPLYt5OahYXLEIj/VkLNHbA+yiLUOwTzfsjLf++DQ8r2cWn1G3GrhRLn5I+driO6A5Kg+CvaIhsl6F18TRbK7Wsl5ZF68+mV7AgLwltoj64FvPz5s9yA6zavYTJzepsyLz81DUxqLNQCtUn/dpuBhPdIudJ7n2tiYefFqj60hPeKFYDnIfYPPbNvOXhXKpLDuRIfwj82LX+4fqY9gtPDIG1MrBbyTrwq2f5f1SKAueFsfmxOnp7SJDemRqZL1CQf1MRiIVzU90og+fxI0pEc2xR55YNy3XXRbjzRyczcnTu9p+jVr4x/gH9kUe8Sy1Ka1Q7wBsy7rkWYmrnzZEBnR57Ne9c9ZN7D15ftY7nYPni931sH5VuB/mMsPXcZEnxdvpa+vzScAXrTiheNU7rSE777cKUFDaWs7iyviOlVlZOr7l47jzPCtLmaX8oGXud+lFzzE0RWeVvxFXrEdzF7JnRwgI45vyg81QQXhOFaMl+s6ZpcnqoxMet2xWf8BXkWntQkw1dDX7JGXfs1K+NqMf2RT+OJ1d1CnuDe7269pZv2azRyv6ZYeacTf/SRoaB2sTfGzXmhd/U7JSJf9rHJnPRTi9DqK/3eo+HG0dcJbxouftTO40Mdrmpk/0gQ6rUeamT+yOeO+q47XMP7pftZ7GTifLclznRJ9ZB5aq6VbHPetlZyCPcK0y3RGgHSe5wfGfaf8WAR9LMM4SKMi9cyUB2atma0FPcJw6r1EYFn+4zQ3T4b8/JGgZ1k1Zunn58VblvV6cZnAtwS3S/tYeR7aZOq5FHCzDMyOUrmr4IeTZDxm1ZCfF29FLkUHIg7TwPZG7cVO5PSIBcm5Taubcro9wg96tm1FF/SB+e8c22oxPESFZam34sFx333J+7EMdlRq7vtlNDWPI6dH2OC7m0lNv27QU1PQ548EEcYd+0llliHNHmExVaUTEWTtEU2D2V4WVWjxNQ/6RybxI/G1kk0gD1PQeVVFwR65yeL0uOCmkAQXbUDTI+PaydHskSCkCHc7xKvxIcWtOnu3eKxtWHp8zQN6hO+9lntLYJYSdZ5GVISVUbBHZqE0h4KfJCxjySXXAr6qhn4g2tJ59eRo9oi5Q/RWLEWWkb6MMx92QpE8Ng+NL8JkPCHoRciM8vKmZnsltpEiCv6RBW+AJF6Yxz/bWtlN87PK5JzHRMpTBSo/K0slOxNdLhbtM3FLtA/NZtX5R+C2X+07nunwAUrzdZ5DlntmGpz30+SEvgjKOXUPH7FilqGgRxzJz7rg4UOSn3agjtcsklOdV1GjZ0z/iMsgHRJLJLVKezQ8KrQYrJweceDub3EzjIbQLPJEUjsswOzU9QLH8d1faDqcRESTkQMbVablEFjKG8CHC868ZqYMVoenGPq8Pmeeys86jSW9CEo+PxI8RtP2qoEKLb5m61AVWz6iFvbGPeFwm5FtJA8zPIQzJkMkJ2FpWub0GiiUJJVQYo8c0JFxIhmAq9+UpvBV8Y+MR5KWqXpyNH7WwCU9zWKUkXs+tLayqCI3n1XVI5aQbEkbRIwYOniyh8fYCIm6ymQIYFVmgJIoxOll9gj8K1l3neFVrE0FqvGzgnDszmzHC8Fm5aGQkQnyKrYPLb5mS/OPSGPMdNGtM0+TQpC3YEczThO0vr3wjA7mYNYleivr15DUjDPlbrZG/qQZEiOZnO+V76c+7sv85D/fspDVeSz1CDRAXWhrtPEa3T8iWIftKEXimTIHmS9qkDAU0lKGf+joy72qKMTpZXqEpZLnWRr/LUDlMQKbVXSvqtuX+XFf7BuQ8gablbK4sIfbRS7eV9UjLE7t6SBOSREInk0NYIGQWPioQbjg0cvjpvqKHRJL+zWg1OlmQG+xrY6h5mf1BecmiK5oAlfHWXEeGk+O0F2bZTEh5sq2ofGhzfV+zdyKfW8miqPEW3oZknzxCDs8yKNXAr/c97oCiv6RzM/qCKeV8Ei2Am3+iEwOr56cknlo0hUf7JCmsjOawHZxp/tZNXXp9D/IPeTwNca5MtgX+fE/o/T4w8GkuHjZijybZVjuZ5UXvdmpqtsbg8Y/Mo8TJO+7CSv7zYvz0ALkOQXILPbLK95z4wE/KxgAg6zBvAl79pdcjg4oH94IZ5WwJBlkLOAKvtQb80U8wKvoJJBMln7Ml/CzQR/3nVFyYskwXAEFvnjvcyb2wRDa7/GoG3N69Tg9bf4I9NLD/0yL7nzgRt5CqQjwJOphOBJNPOLDn+gq0cBsL3HDBfFbReT0CA9id8+yhUCfxVZgmmuSaa0BfT0946ZmcjR7ZMoc//W9gRXEt4GZX9+mJXjqfFZNj9ieE5iRC8IBwjz2zvIiHYQ9x3l/JrIxdfrFlobbN45ThXNERc4/wmxn9j4jpjQ+9QOn0JY/H3LrchqDIJBmWyXcqH1KPnMu1aLC5aJazKKKpevpOSYK9TkPhmG5vd47KjjVmkTBHukQvhYMiVrQ7ZGOCEQJlsXXyCkvAEesSpIH+08sqfdU6DKPUUPxNYX19DoK3c9qLfTIeZpNPPTKK/RTT/Hpsh5pKE6vsJ5eR7F0PT0nTfuDsR30hNGKYIF1j9RVZ7AJ2PI7Ql3HiESn42ua0SOF9fQ6ijtNj6jjvjzwPC9wlHgIZklGCqTOSP2gYI7O5LeIj2t6L7qsR4LDRtL2fkPifS+ulH6NPu4LQsH0sdfJ3GDGZIobBjvFHNIJ+GLG+Zp1pNM8z82Mxp5tSJze8nUnWkan9Ugz/KxfmukePTk8WgdP4qH4mudGp3mec/6Rmtj+tRn2yK2qR7YOuyMjlx3u+zbGG7AZbU1uHpr1ye4GPvUP/srd7sEy5c568Jq5zJPD19RmP44PYvPgbfzxbXzw9iM8YhN24E15HqgfnuoJf5I7oj0hTfh6umdsXi/5ByweSoMKPJa91HQue8J5ULZiF38uX2JHXIcutTjY4pv5Tm9dpmxyPmFb8+nW1mRrjg/ov8znbMrOpwze8TmB3cWHwlOcB+9z/Xil57nBJupf5p+T+dbWdIJpfJrnfA5/MZ3A3xS/YdB5wwKYTufZE8toy4Biw7J6qHCypyhi7B5OJ5BX6ATSFt5gZwuvQ3+Fd8OAx2R6brS3N2/EQH/BC17wghe84AUvWBuG8f8BiOhWOeO9zrUAAAAASUVORK5CYII=;" vertex="1" parent="1">
          <mxGeometry x="870" y="-540" width="556.5" height="586" as="geometry" />
        </mxCell>
        <mxCell id="Rb0Z4TxSwjB6O6hXRURV-2" value="" style="shape=curlyBracket;whiteSpace=wrap;html=1;rounded=1;labelPosition=left;verticalLabelPosition=middle;align=right;verticalAlign=middle;" vertex="1" parent="1">
          <mxGeometry x="840" y="-450" width="20" height="100" as="geometry" />
        </mxCell>
        <mxCell id="Rb0Z4TxSwjB6O6hXRURV-3" value="" style="shape=curlyBracket;whiteSpace=wrap;html=1;rounded=1;labelPosition=left;verticalLabelPosition=middle;align=right;verticalAlign=middle;" vertex="1" parent="1">
          <mxGeometry x="840" y="-220" width="20" height="100" as="geometry" />
        </mxCell>
        <mxCell id="Rb0Z4TxSwjB6O6hXRURV-4" value="" style="shape=curlyBracket;whiteSpace=wrap;html=1;rounded=1;labelPosition=left;verticalLabelPosition=middle;align=right;verticalAlign=middle;" vertex="1" parent="1">
          <mxGeometry x="840" y="-330" width="20" height="100" as="geometry" />
        </mxCell>
        <mxCell id="Rb0Z4TxSwjB6O6hXRURV-6" value="" style="shape=curlyBracket;whiteSpace=wrap;html=1;rounded=1;labelPosition=left;verticalLabelPosition=middle;align=right;verticalAlign=middle;" vertex="1" parent="1">
          <mxGeometry x="840" y="-110" width="20" height="70" as="geometry" />
        </mxCell>
        <mxCell id="Rb0Z4TxSwjB6O6hXRURV-7" value="&lt;font style=&quot;font-size: 18px;&quot;&gt;Отключение LIDAR&lt;/font&gt;" style="text;html=1;align=center;verticalAlign=middle;resizable=0;points=[];autosize=1;strokeColor=none;fillColor=none;" vertex="1" parent="1">
          <mxGeometry x="660" y="-420" width="180" height="40" as="geometry" />
        </mxCell>
        <mxCell id="Rb0Z4TxSwjB6O6hXRURV-8" value="&lt;font style=&quot;font-size: 18px;&quot;&gt;Ошибка одометрии&lt;/font&gt;" style="text;html=1;align=center;verticalAlign=middle;resizable=0;points=[];autosize=1;strokeColor=none;fillColor=none;" vertex="1" parent="1">
          <mxGeometry x="655" y="-190" width="190" height="40" as="geometry" />
        </mxCell>
        <mxCell id="Rb0Z4TxSwjB6O6hXRURV-9" value="&lt;font style=&quot;font-size: 18px;&quot;&gt;Отключение IMU&lt;/font&gt;" style="text;html=1;align=center;verticalAlign=middle;resizable=0;points=[];autosize=1;strokeColor=none;fillColor=none;" vertex="1" parent="1">
          <mxGeometry x="670" y="-300" width="160" height="40" as="geometry" />
        </mxCell>
        <mxCell id="Rb0Z4TxSwjB6O6hXRURV-10" value="&lt;font style=&quot;font-size: 18px;&quot;&gt;Столкновение&lt;/font&gt;" style="text;html=1;align=center;verticalAlign=middle;resizable=0;points=[];autosize=1;strokeColor=none;fillColor=none;" vertex="1" parent="1">
          <mxGeometry x="690" y="-100" width="140" height="40" as="geometry" />
        </mxCell>
        <mxCell id="Rb0Z4TxSwjB6O6hXRURV-11" value="&lt;span style=&quot;font-size: 18px;&quot;&gt;Недостаточный уровень заряда&lt;/span&gt;" style="text;html=1;align=center;verticalAlign=middle;resizable=0;points=[];autosize=1;strokeColor=none;fillColor=none;" vertex="1" parent="1">
          <mxGeometry x="580" y="-40" width="290" height="40" as="geometry" />
        </mxCell>
        <mxCell id="Rb0Z4TxSwjB6O6hXRURV-12" value="&lt;font style=&quot;font-size: 18px;&quot;&gt;Ошибка планировщика пути&lt;/font&gt;" style="text;html=1;align=center;verticalAlign=middle;resizable=0;points=[];autosize=1;strokeColor=none;fillColor=none;" vertex="1" parent="1">
          <mxGeometry x="600" width="260" height="40" as="geometry" />
        </mxCell>
        <mxCell id="Rb0Z4TxSwjB6O6hXRURV-13" value="" style="rounded=0;whiteSpace=wrap;html=1;direction=south;" vertex="1" parent="1">
          <mxGeometry x="-360" width="360" height="720" as="geometry" />
        </mxCell>
        <mxCell id="Rb0Z4TxSwjB6O6hXRURV-14" value="" style="ellipse;whiteSpace=wrap;html=1;aspect=fixed;fillColor=default;" vertex="1" parent="1">
          <mxGeometry x="-200" y="670" width="40" height="40" as="geometry" />
        </mxCell>
        <mxCell id="Rb0Z4TxSwjB6O6hXRURV-15" value="Старт" style="text;html=1;align=center;verticalAlign=middle;whiteSpace=wrap;rounded=0;fontStyle=1" vertex="1" parent="1">
          <mxGeometry x="-210" y="640" width="60" height="30" as="geometry" />
        </mxCell>
        <mxCell id="Rb0Z4TxSwjB6O6hXRURV-16" value="" style="verticalLabelPosition=bottom;verticalAlign=top;html=1;shape=mxgraph.basic.star" vertex="1" parent="1">
          <mxGeometry x="-200" y="10" width="40" height="37" as="geometry" />
        </mxCell>
        <mxCell id="Rb0Z4TxSwjB6O6hXRURV-17" value="Цель" style="text;html=1;align=center;verticalAlign=middle;whiteSpace=wrap;rounded=0;fontStyle=1" vertex="1" parent="1">
          <mxGeometry x="-210" y="50" width="60" height="30" as="geometry" />
        </mxCell>
        <mxCell id="Rb0Z4TxSwjB6O6hXRURV-18" value="" style="endArrow=classic;startArrow=classic;html=1;rounded=0;dashed=1;dashPattern=12 12;opacity=50;" edge="1" parent="1">
          <mxGeometry width="50" height="50" relative="1" as="geometry">
            <mxPoint x="20" y="720" as="sourcePoint" />
            <mxPoint x="20" as="targetPoint" />
          </mxGeometry>
        </mxCell>
        <mxCell id="Rb0Z4TxSwjB6O6hXRURV-19" value="10 м" style="text;html=1;align=center;verticalAlign=middle;whiteSpace=wrap;rounded=0;opacity=50;fontStyle=1" vertex="1" parent="1">
          <mxGeometry x="20" y="330" width="60" height="30" as="geometry" />
        </mxCell>
        <mxCell id="Rb0Z4TxSwjB6O6hXRURV-20" value="" style="shape=umlActor;verticalLabelPosition=bottom;verticalAlign=top;html=1;outlineConnect=0;direction=east;" vertex="1" parent="1">
          <mxGeometry x="-30" y="490" width="21" height="40" as="geometry" />
        </mxCell>
        <mxCell id="Rb0Z4TxSwjB6O6hXRURV-21" value="" style="shape=umlActor;verticalLabelPosition=bottom;verticalAlign=top;html=1;outlineConnect=0;" vertex="1" parent="1">
          <mxGeometry x="-30" y="140" width="21" height="40" as="geometry" />
        </mxCell>
        <mxCell id="Rb0Z4TxSwjB6O6hXRURV-25" value="" style="shape=umlActor;verticalLabelPosition=bottom;verticalAlign=top;html=1;outlineConnect=0;" vertex="1" parent="1">
          <mxGeometry x="-340" y="320" width="21" height="40" as="geometry" />
        </mxCell>
        <mxCell id="Rb0Z4TxSwjB6O6hXRURV-26" value="&lt;i&gt;v&lt;/i&gt;" style="text;html=1;align=center;verticalAlign=middle;whiteSpace=wrap;rounded=0;" vertex="1" parent="1">
          <mxGeometry x="409" y="190" width="66" height="40" as="geometry" />
        </mxCell>
        <mxCell id="Rb0Z4TxSwjB6O6hXRURV-28" value="" style="endArrow=classic;html=1;rounded=0;" edge="1" parent="1">
          <mxGeometry width="50" height="50" relative="1" as="geometry">
            <mxPoint x="-40" y="510" as="sourcePoint" />
            <mxPoint x="-70" y="510" as="targetPoint" />
          </mxGeometry>
        </mxCell>
        <mxCell id="Rb0Z4TxSwjB6O6hXRURV-29" value="" style="endArrow=classic;html=1;rounded=0;" edge="1" parent="1">
          <mxGeometry width="50" height="50" relative="1" as="geometry">
            <mxPoint x="-40" y="160" as="sourcePoint" />
            <mxPoint x="-70" y="160" as="targetPoint" />
          </mxGeometry>
        </mxCell>
        <mxCell id="Rb0Z4TxSwjB6O6hXRURV-30" value="" style="endArrow=classic;html=1;rounded=0;" edge="1" parent="1">
          <mxGeometry width="50" height="50" relative="1" as="geometry">
            <mxPoint x="-310" y="340" as="sourcePoint" />
            <mxPoint x="-280" y="340" as="targetPoint" />
          </mxGeometry>
        </mxCell>
        <mxCell id="Rb0Z4TxSwjB6O6hXRURV-31" value="&lt;i&gt;v&lt;/i&gt;" style="text;html=1;align=center;verticalAlign=middle;whiteSpace=wrap;rounded=0;" vertex="1" parent="1">
          <mxGeometry x="-80" y="130" width="66" height="40" as="geometry" />
        </mxCell>
        <mxCell id="Rb0Z4TxSwjB6O6hXRURV-32" value="&lt;i&gt;v&lt;/i&gt;" style="text;html=1;align=center;verticalAlign=middle;whiteSpace=wrap;rounded=0;" vertex="1" parent="1">
          <mxGeometry x="-330" y="310" width="66" height="40" as="geometry" />
        </mxCell>
        <mxCell id="Rb0Z4TxSwjB6O6hXRURV-33" value="&lt;i&gt;v&lt;/i&gt;" style="text;html=1;align=center;verticalAlign=middle;whiteSpace=wrap;rounded=0;" vertex="1" parent="1">
          <mxGeometry x="-80" y="480" width="66" height="40" as="geometry" />
        </mxCell>
        <mxCell id="Rb0Z4TxSwjB6O6hXRURV-35" value="" style="endArrow=classic;startArrow=classic;html=1;rounded=0;dashed=1;dashPattern=12 12;opacity=50;" edge="1" parent="1">
          <mxGeometry width="50" height="50" relative="1" as="geometry">
            <mxPoint y="-20" as="sourcePoint" />
            <mxPoint x="-360" y="-20" as="targetPoint" />
          </mxGeometry>
        </mxCell>
        <mxCell id="Rb0Z4TxSwjB6O6hXRURV-36" value="5 м" style="text;html=1;align=center;verticalAlign=middle;whiteSpace=wrap;rounded=0;opacity=50;fontStyle=1" vertex="1" parent="1">
          <mxGeometry x="-210" y="-50" width="60" height="30" as="geometry" />
        </mxCell>
      </root>
    </mxGraphModel>
  </diagram>
</mxfile>
